<svg xmlns:dc="http://purl.org/dc/elements/1.1/" xmlns:cc="http://creativecommons.org/ns#" xmlns:rdf="http://www.w3.org/1999/02/22-rdf-syntax-ns#" xmlns:svg="http://www.w3.org/2000/svg" xmlns="http://www.w3.org/2000/svg" xmlns:sodipodi="http://sodipodi.sourceforge.net/DTD/sodipodi-0.dtd" xmlns:inkscape="http://www.inkscape.org/namespaces/inkscape" width="100%" height="100%" viewBox="0 -0.2599999999999909 1898 1404.52" id="svg4249" version="1.1" version="0.91 r13725" docname="bgd_hakaton_f2.svg" preserveAspectRatio="xMidYMid meet">
  <defs id="defs4251"></defs>
  <sodipodi:namedview id="base" pagecolor="#ffffff" bordercolor="#666666" borderopacity="1.0" pageopacity="0.0" pageshadow="2" zoom="0.35" cx="353.11962" cy="923.21296" document-units="px" current-layer="layer1" showgrid="false" fit-margin-top="2" fit-margin-right="2" fit-margin-bottom="2" fit-margin-left="2" window-width="1600" window-height="837" window-x="-8" window-y="-8" window-maximized="1"></sodipodi:namedview>
  <metadata id="metadata4254">
    <rdf:RDF>
      <cc:Work about="">
        <dc:format>image/svg+xml</dc:format>
        <dc:type resource="http://purl.org/dc/dcmitype/StillImage"></dc:type>
        
      </cc:Work>
    </rdf:RDF>
  </metadata>
  <g label="Layer 1" groupmode="layer" id="layer1" transform="translate(649.93045,994.0373)">
    <path style="opacity: 0.96; fill: rgb(105, 224, 49); fill-opacity: 0.512077; stroke-width: 0.5; stroke-miterlimit: 4; stroke-dasharray: none; vector-effect: non-scaling-stroke; stroke: rgb(10, 10, 10);" d="m -278.38995,-379.46939 -16.0593,-10.84914 -5.9808,2.0739 -5.98069,2.07391 -5.3666,-5.31894 c -2.9517,-2.92542 -5.7414,-5.31679 -6.1994,-5.31417 -0.458,0.002 -3.4861,2.12283 -6.7291,4.71158 -3.8621,3.08284 -6.2241,4.43811 -6.846,3.92805 -0.5222,-0.42831 -1.8623,-0.91192 -2.9781,-1.07468 -1.8508,-0.27 -1.6435,-0.59597 2.3648,-3.71889 4.3559,-3.39366 4.3892,-3.45591 3.8927,-7.27378 -1.0196,-7.83949 -0.3652,-7.30314 -10.6957,-8.76671 -8.7259,-1.23626 -9.6097,-1.54369 -13.4175,-4.66781 -6.2109,-5.09567 -11.6521,-8.79174 -22.9428,-15.58441 -11.9388,-7.18261 -21.4867,-14.77325 -25.4471,-20.23063 -3.1273,-4.30931 -7.7291,-12.99456 -12.0954,-22.82803 -3.404,-7.66646 -7.4245,-13.11233 -19.4507,-26.34646 -7.3837,-8.12545 -8.7896,-10.13802 -9.4131,-13.4751 -0.4031,-2.15764 -1.2808,-4.52998 -1.9504,-5.27185 -1.4061,-1.55775 -1.866,-11.58667 -0.8627,-18.81017 0.4998,-3.59849 1.2298,-5.17155 3.2887,-7.0863 3.6747,-3.41761 9.6306,-6.3428 14.1987,-6.97356 6.9622,-0.96136 10.2625,-2.32636 14.4207,-5.96434 2.2568,-1.97448 5.8646,-4.80564 8.0173,-6.29146 3.3987,-2.34587 4.0382,-3.28077 4.8577,-7.10197 1.3271,-6.18847 1.2277,-7.30056 -1.325,-14.81222 -1.9355,-5.6958 -2.1107,-6.97099 -1.1933,-8.68524 1.4674,-2.74176 0.4386,-6.81548 -2.4509,-9.70494 -1.294,-1.29399 -2.6093,-3.37511 -2.9229,-4.62472 -0.3137,-1.24961 -2.4692,-4.54457 -4.79,-7.32214 -2.3209,-2.77756 -3.9591,-5.44145 -3.6405,-5.91975 0.7113,-1.06759 3.9303,-2.80128 11.5245,-6.20684 4.5686,-2.04872 5.9978,-3.14239 6.6858,-5.11607 0.9767,-2.80159 2.7053,-3.50857 8.621,-3.52584 3.4851,-0.0102 4.2774,0.33921 6.1262,2.70158 1.6163,2.06526 3.0099,2.83168 5.8349,3.20903 3.4153,0.45619 3.8037,0.7689 4.8666,3.91871 0.7921,2.34718 1.0177,5.88872 0.7179,11.26867 -0.2405,4.31514 -0.2042,8.07869 0.081,8.36343 0.2847,0.28473 0.4173,2.40863 0.2947,4.71976 -0.2262,4.26179 0.8636,7.41012 3.1482,9.09497 0.6927,0.51082 2.0739,2.93364 3.0693,5.38406 1.7224,4.23998 2.347,4.79956 12.9252,11.57933 l 11.1154,7.12404 0.01,4.80156 0.01,4.80154 7.2738,7.33759 c 9.0771,9.15681 11.8578,10.96795 16.0732,10.46891 1.7495,-0.20712 3.8271,-0.66201 4.6169,-1.01087 1.0062,-0.44445 2.4103,0.25861 4.6914,2.34908 l 3.2554,2.98338 -1.1728,4.1444 c -2.1662,7.65508 -2.1307,8.40154 0.5474,11.51183 1.3741,1.59579 3.74989,5.11794 5.27959,7.82699 3.0502,5.40184 5.1532,7.00224 8.3886,6.38376 1.7377,-0.33219 2.2802,0.042 2.9829,2.05792 0.8391,2.40715 1.001,2.46394 7.0214,2.46394 l 6.1624,0 1.1032,3.05095 c 1.3918,3.84892 2.7977,4.3803 6.8064,2.57261 3.8485,-1.73541 7.8375,-0.72144 7.8375,1.99218 0,0.98755 2.4435,3.83963 5.9902,6.99168 3.2946,2.92807 5.9902,6.02633 5.9902,6.88503 0,0.85869 1.1517,2.41278 2.5594,3.45353 2.229,1.64801 2.4061,2.06554 1.3717,3.23464 -2.5929,2.93072 -3.2428,19.87865 -1.0344,26.97462 0.7256,2.33132 1.1726,4.38538 0.9934,4.56458 -0.1792,0.1792 -1.9723,0.54665 -3.9846,0.81656 -2.0124,0.26991 -5.7987,1.31962 -8.4142,2.3327 -6.4984,2.51711 -6.5139,4.56925 -0.049,6.46143 l 4.7066,1.37749 -4.5516,0.55371 c -5.4787,0.66648 -9.9797,3.26942 -11.8254,6.8386 -1.2805,2.47618 -1.2451,2.90939 0.6049,7.40511 2.5719,6.24992 6.4896,12.60742 8.1656,13.25054 0.7337,0.28156 3.3785,0.75222 5.8774,1.04591 l 4.5432,0.53397 -0.7641,2.66447 c -1.4778,5.15272 2.3544,10.81299 7.3207,10.81299 0.9945,0 1.3261,0.93135 1.3261,3.72521 l 0,3.7252 -4.137,-0.39751 c -2.8992,-0.27858 -5.0115,0.0507 -7.0599,1.10077 -3.6165,1.85385 -4.1768,2.67664 -4.1933,6.15798 -0.01,2.18329 -0.5401,3.03167 -2.5379,4.06476 -1.3886,0.71807 -2.6401,1.2941 -2.7811,1.28006 -0.141,-0.014 -7.4831,-4.90763 -16.3157,-10.87466 z" id="path4215" connector-curvature="0" class="mapsvg-region"></path>
    <path style="opacity: 0.96; fill: rgb(105, 224, 49); fill-opacity: 0.512077; stroke-width: 0.5; stroke-miterlimit: 4; stroke-dasharray: none; vector-effect: non-scaling-stroke; stroke: rgb(10, 10, 10);" d="m -173.18455,-164.68936 c -0.2089,-0.35301 -0.6574,-2.31917 -0.9968,-4.36925 -0.7995,-4.82924 -2.9636,-6.96636 -7.068,-6.97991 -2.7199,-0.009 -3.5038,-0.4655 -5.1423,-2.9951 -1.8166,-2.80429 -2.2135,-2.98447 -6.5744,-2.98447 -3.8229,0 -4.7328,-0.28926 -5.1618,-1.64091 -1.0912,-3.43811 -3.8765,-5.91086 -7.3116,-6.49124 -2.7541,-0.46529 -3.9181,-1.28252 -5.8959,-4.13937 -1.3553,-1.95782 -3.5155,-4.52236 -4.8004,-5.69899 -1.2849,-1.17664 -4.396,-4.70501 -6.9136,-7.84078 -6.2129,-7.73856 -8.9603,-9.58414 -14.093,-9.46719 -5.4125,0.12326 -7.0002,-1.55687 -4.2438,-4.49098 1.7337,-1.8454 1.8765,-2.58818 1.3333,-6.93565 -0.6206,-4.96702 -3.2239,-8.91791 -5.8761,-8.91791 -0.6702,0 -1.7033,-1.16998 -2.2956,-2.59995 -2.2927,-5.53516 -8.6121,-5.81794 -18.4745,-0.82672 -3.895,1.97125 -7.9793,3.42083 -9.6443,3.42294 -2.805,0.004 -2.8718,-0.0763 -2.3197,-2.77742 1.8753,-9.17381 1.8993,-9.05429 -4.156,-20.68886 -3.1358,-6.02522 -5.509,-11.14745 -5.2737,-11.38274 0.2353,-0.23528 1.8425,0.44658 3.5717,1.51526 4.106,2.53767 9.9929,2.54687 13.1139,0.0204 1.2268,-0.99306 4.022,-3.15398 6.2115,-4.80205 2.1895,-1.64805 4.2272,-3.6385 4.5283,-4.42319 0.3011,-0.7847 0.2805,-4.13696 -0.046,-7.44946 -0.6242,-6.33535 -1.5828,-7.84566 -7.5818,-11.94627 -2.0063,-1.37136 -2.2836,-2.0361 -1.882,-4.51081 0.7313,-4.50628 -0.8556,-7.76239 -4.9533,-10.16381 -5.9986,-3.51544 -6.331,-4.20067 -5.6903,-11.73131 l 0.5634,-6.62083 -4.5022,-6.18099 -4.5022,-6.181 4.0118,-2.49698 c 5.1914,-3.23123 7.9846,-3.98711 14.7841,-4.00075 l 5.568,-0.0112 2.8515,-6.78683 c 2.0178,-4.80259 3.7065,-7.43905 5.7762,-9.01764 2.4219,-1.84732 2.9247,-2.78814 2.9247,-5.47286 0,-2.64373 0.4023,-3.42532 2.1796,-4.23515 2.3896,-1.08873 5.4853,-1.28188 7.5914,-0.47367 1.7543,0.67316 1.7877,5.73686 0.07,10.60518 -1.6214,4.59569 -1.6302,7.77206 -0.027,9.89138 0.6911,0.91361 1.2687,2.34292 1.2837,3.17624 0.041,2.28863 6.5861,15.28939 9.4405,18.75226 1.653,2.00544 5.6177,4.60559 11.6041,7.61027 10.2155,5.12744 11.7902,6.82136 17.0303,18.3201 3.6939,8.1055 7.8869,14.1504 19.0538,27.46879 12.9291,15.42004 18.5335,19.65586 25.1692,19.02305 1.8167,-0.17326 3.3032,-0.0472 3.3032,0.2801 0,0.32732 3.3159,2.40263 7.3687,4.61181 5.7118,3.11349 7.9727,3.92043 10.0549,3.5886 2.6703,-0.42553 2.6973,-0.3917 4.5533,5.67968 1.0268,3.35928 2.0543,7.78223 2.2831,9.82874 0.4557,4.0747 2.9338,7.38354 6.1307,8.1859 1.4659,0.36792 2.368,1.63977 3.429,4.83441 0.792,2.38436 1.3044,4.45286 1.1388,4.59666 -0.1656,0.1438 -2.1302,1.0599 -4.3658,2.0358 -3.1971,1.39558 -4.0649,2.20472 -4.0649,3.79065 0,2.43798 1.4775,4.07007 3.6845,4.07007 0.897,0 2.7749,0.96273 4.1733,2.13936 1.6284,1.3702 3.5956,2.13932 5.4719,2.13932 1.8984,0 2.9294,0.40934 2.9294,1.16304 0,0.63967 1.1504,3.4315 2.5563,6.2041 1.4061,2.7726 2.5613,5.12747 2.5673,5.23307 0.045,0.79597 -5.5435,2.71534 -9.4023,3.22917 -4.9852,0.66381 -7.143,1.49664 -9.713,3.74867 -0.8709,0.76314 -3.5665,1.77263 -5.9902,2.2433 -4.2023,0.81606 -4.5055,1.06223 -6.5368,5.30775 -1.8851,3.9397 -2.5001,4.51449 -5.345,4.99515 -1.9986,0.33767 -3.8762,1.38401 -4.9632,2.76587 l -1.7484,2.22272 -5.3148,-2.72558 c -2.9232,-1.49905 -6.1217,-2.72542 -7.1077,-2.72525 -2.3275,0 -4.6221,2.5748 -4.6369,5.20215 -0.019,3.35878 -0.9614,5.92282 -2.177,5.92282 -0.6233,0 -1.3041,-0.28884 -1.513,-0.6418 z" id="path4217" connector-curvature="0" class="mapsvg-region"></path>
    <path style="opacity: 0.96; fill: rgb(105, 224, 49); fill-opacity: 0.512077; stroke-width: 0.5; stroke-miterlimit: 4; stroke-dasharray: none; vector-effect: non-scaling-stroke; stroke: rgb(10, 10, 10);" d="m -286.65445,-326.98735 c -1.491,-1.59392 -2.9436,-2.21786 -5.1637,-2.21786 -2.5985,0 -3.7862,-0.71343 -7.4793,-4.49263 -2.4146,-2.47094 -4.98109,-5.93669 -5.70329,-7.70165 -1.1382,-2.78156 -1.684,-3.20902 -4.0972,-3.20902 -1.9769,0 -3.6232,0.80638 -5.6783,2.78115 l -2.8941,2.78115 0.5791,-4.27869 c 0.7434,-5.49209 3.2682,-7.75345 9.5301,-8.53582 2.5206,-0.31493 4.5829,-0.97456 4.5829,-1.46584 0,-0.49128 -0.6739,-2.80372 -1.4976,-5.13873 l -1.4975,-4.24549 -3.5973,0.28283 c -3.5706,0.28072 -3.6014,0.25841 -4.1527,-3.00438 -0.445,-2.63404 -1.0523,-3.46043 -3.0563,-4.15904 -2.2655,-0.78974 -2.4507,-1.14002 -1.9667,-3.71988 0.2939,-1.56643 0.081,-4.22112 -0.4727,-5.8993 -0.9763,-2.95838 -1.6231,-3.37025 -6.4363,-4.09856 -2.7654,-0.41844 -2.0054,-1.97822 2.8463,-5.84115 l 4.5577,-3.62895 5.4311,5.38275 5.431,5.38275 6.07619,-2.25222 6.0762,-2.25223 16.1438,10.75854 16.1438,10.75855 -2.139,4.9574 -2.1391,4.9574 -6.6369,0.3842 c -6.0474,0.35008 -7.2553,0.7467 -13.597,4.46458 -4.3914,2.57451 -6.7419,4.44508 -6.3689,5.06861 0.3251,0.54353 2.6593,3.74951 5.1871,7.12438 4.0882,5.45809 4.5666,6.53057 4.3296,9.70558 l -0.2664,3.56944 -2.0746,-2.21787 z" id="path4219" connector-curvature="0" class="mapsvg-region"></path>
    <path style="/* display: none; */fill: rgb(234, 251, 226);fill-opacity: 0.512077;stroke-width: 0.5;stroke-miterlimit: 4;stroke-dasharray: none;vector-effect: non-scaling-stroke;" d="m -337.26064,-367.9274 c -0.9578,-0.82922 -1.1738,-2.94522 -0.9605,-9.41313 0.274,-8.3126 0.2831,-8.34345 2.4685,-8.34345 1.3984,0 3.2176,1.08575 5.0183,2.99508 1.9911,2.11118 3.5717,2.99509 5.3558,2.99509 2.2809,0 2.5675,0.31245 2.9001,3.16134 0.3119,2.67124 -0.087,3.66621 -2.5732,6.41804 -2.6119,2.89109 -3.393,3.2567 -6.9578,3.2567 -2.2085,0 -4.5716,-0.48135 -5.2512,-1.06967 z" id="path4221" connector-curvature="0" class="mapsvg-region"></path>
    <path style="opacity: 0.96;fill: rgb(105, 224, 49);fill-opacity: 0.512077;stroke-width: 0.5;stroke-miterlimit: 4;stroke-dasharray: none;vector-effect: non-scaling-stroke;stroke: rgb(10, 10, 10);" d="m -337.45924,-343.84231 c -1.0085,-0.5868 -1.3557,-1.45857 -1.0121,-2.54119 0.6285,-1.98015 -0.4109,-2.04864 -5.1545,-0.33968 -4.9859,1.79621 -5.4624,1.63402 -7.2155,-2.45591 -0.8758,-2.04316 -2.6716,-4.50097 -3.9906,-5.4618 -2.1945,-1.59861 -2.4178,-2.27021 -2.629,-7.90799 -0.2054,-5.48229 -0.5187,-6.48887 -2.8438,-9.137 -1.4371,-1.63678 -2.4062,-3.31052 -2.1535,-3.71941 0.2527,-0.4089 3.7316,-3.29845 7.7307,-6.42123 7.3912,-5.77141 8.9378,-6.23496 12.1713,-3.64795 1.2828,1.02628 1.4582,11.71104 0.2608,15.88609 -0.6708,2.33894 -0.5612,2.91158 0.6418,3.35488 2.2304,0.82183 2.5364,1.7034 3.1743,9.14328 0.3769,4.39497 1.1853,7.89286 2.216,9.58763 2.5377,4.17265 2.0819,5.5676 -1.1959,3.66028 z" id="path4223" connector-curvature="0" class="mapsvg-region"></path>
    <path style="opacity: 0.96; fill: rgb(105, 224, 49); fill-opacity: 0.512077; stroke-width: 0.5; stroke-miterlimit: 4; stroke-dasharray: none; vector-effect: non-scaling-stroke; stroke: rgb(10, 10, 10);" d="m -346.87704,-390.56067 c -0.8621,-0.22368 -2.4702,-2.50362 -3.6542,-5.18083 l -2.1146,-4.78137 2.1764,-3.28866 c 1.6897,-2.55333 2.6024,-3.19905 4.0821,-2.88786 1.0481,0.22045 4.6587,0.83144 8.0235,1.35775 l 6.1179,0.95692 0.3927,3.14626 c 0.216,1.73044 0.3511,3.15846 0.3002,3.17338 -0.051,0.0149 -2.2719,1.84405 -4.9355,4.06475 -4.6467,3.87389 -6.4339,4.46565 -10.3885,3.43966 z" id="path4225" connector-curvature="0" class="mapsvg-region"></path>
    <path style="opacity: 0.96; fill: rgb(105, 224, 49); fill-opacity: 0.512077; stroke-width: 0.5; stroke-miterlimit: 4; stroke-dasharray: none; vector-effect: non-scaling-stroke; stroke: rgb(10, 10, 10);" d="m -415.72554,-359.41848 c -2.1745,-7.10451 -3.1232,-9.04651 -4.8779,-9.98559 -2.1035,-1.12578 -2.1783,-1.45013 -2.1783,-9.44548 0,-4.55382 -0.2511,-12.38295 -0.5579,-17.39805 l -0.5579,-9.11838 4.3713,0 c 2.4043,0 10.4264,0.97724 17.8271,2.17166 7.4006,1.19441 13.9465,1.98334 14.5463,1.75317 0.5998,-0.23017 1.8859,-1.97758 2.8581,-3.88314 1.4501,-2.84241 2.2118,-3.46465 4.2413,-3.46465 2.6099,0 5.7447,2.97657 8.2625,7.84537 l 1.2958,2.50577 7.2257,-0.5863 7.2258,-0.5863 2.1801,4.92972 c 1.1991,2.71134 2.0677,5.22713 1.9302,5.59063 -0.1375,0.36349 -3.3306,3.13841 -7.0958,6.16647 l -6.846,5.50556 -12.0554,1.80518 -12.0554,1.80519 -5.9645,6.25611 c -3.2805,3.44087 -8.2151,8.66289 -10.9659,11.60449 -2.7507,2.9416 -5.2507,5.34837 -5.5555,5.34837 -0.3048,0 -1.7689,-3.96891 -3.2537,-8.8198 z" id="path4227" connector-curvature="0" class="mapsvg-region"></path>
    <path style="opacity: 0.96; fill: rgb(105, 224, 49); fill-opacity: 0.512077; stroke-width: 0.5; stroke-miterlimit: 4; stroke-dasharray: none; vector-effect: non-scaling-stroke; stroke: rgb(10, 10, 10);" d="m -536.98284,-397.79529 c 0.3907,-2.51659 0.7462,-6.9624 0.79,-9.87959 0.044,-2.91719 0.3562,-5.58068 0.6944,-5.91886 0.9355,-0.93545 0.7344,-5.12128 -0.3616,-7.52663 -0.8616,-1.89108 -0.6604,-2.50308 1.7115,-5.20448 1.4784,-1.68375 2.6879,-3.44866 2.6879,-3.92199 0,-1.4205 3.6638,-5.92575 4.819,-5.92575 3.5516,0 4.8494,-8.58627 2.3049,-15.24893 l -1.4336,-3.75367 3.0474,-2.69298 c 3.5729,-3.15736 4.4333,-5.17492 3.1941,-7.49023 -1.3096,-2.44715 2.9536,-6.91785 5.8932,-6.18003 1.1305,0.28373 5.1877,0.64776 9.0161,0.80897 3.8283,0.1612 8.6406,0.38558 10.6938,0.49861 3.0637,0.16867 4.0354,-0.16779 5.4189,-1.87633 1.1219,-1.38538 1.534,-2.8407 1.2322,-4.35015 -0.3638,-1.81877 -0.031,-2.46102 1.6805,-3.24071 1.1738,-0.53483 2.7795,-2.09675 3.5681,-3.47095 0.8806,-1.53432 2.3894,-2.68961 3.9097,-2.99367 1.3617,-0.27233 3.8878,-1.95012 5.6135,-3.72842 3.7311,-3.84462 9.0851,-5.76875 12.4705,-4.48165 3.2959,1.25311 7.125,1.06645 11.5498,-0.56301 4.9868,-1.83643 6.7151,-3.34276 7.0402,-6.13628 0.2385,-2.04877 1.0582,-1.36331 9.0604,7.57667 11.0162,12.30726 13.9548,16.55425 17.7004,25.58105 8.7931,21.19106 15.9241,28.75033 41.9605,44.48062 5.6479,3.41225 12.6866,8.1215 15.6416,10.46504 l 5.3728,4.26096 -1.5219,2.622 c -1.7978,3.09718 -1.5719,3.0089 -9.3031,3.63672 -5.779,0.46929 -6.114,0.39579 -6.9936,-1.5346 -0.508,-1.11513 -2.1487,-3.42268 -3.646,-5.12791 -2.4804,-2.82508 -3.1217,-3.10042 -7.2212,-3.10042 -4.4488,0 -4.5214,0.0423 -6.5112,3.79306 -1.7167,3.23608 -2.3311,3.73614 -4.1837,3.40543 -21.9704,-3.92208 -28.7819,-4.50322 -46.0274,-3.92682 l -17.3282,0.57915 -1.3496,-4.27869 c -0.7423,-2.35329 -1.6653,-9.75452 -2.0511,-16.44718 -0.8193,-14.21251 -2.4024,-18.82527 -7.2504,-21.12579 -5.2872,-2.50893 -7.0116,-1.85764 -9.3956,3.54859 -1.4562,3.30203 -2.4155,4.04407 -10.6731,8.25541 -4.9903,2.545 -11.5473,5.6628 -14.5712,6.92847 -5.2817,2.21068 -7.0648,3.752 -14.7524,12.7516 -1.8761,2.19616 -2.3252,2.35262 -4.071,1.41826 -1.0793,-0.57762 -2.2799,-0.72573 -2.668,-0.32914 -0.3881,0.39659 -2.0366,5.12921 -3.6633,10.51692 -2.9496,9.76871 -2.9669,9.79889 -6.2624,10.89466 -1.8176,0.60433 -4.0331,1.52843 -4.9235,2.05354 -1.5367,0.90634 -1.5827,0.72285 -0.9083,-3.62087 z" id="path4229" connector-curvature="0" class="mapsvg-region"></path>
    <path style="opacity: 0.96; fill: rgb(105, 224, 49); fill-opacity: 0.512077; stroke-width: 0.5; stroke-miterlimit: 4; stroke-dasharray: none; vector-effect: non-scaling-stroke; stroke: rgb(10, 10, 10);" d="m -465.65654,-263.2565 c -5.1758,-1.01088 -10.7761,-4.86948 -13.2877,-9.15522 -4.138,-7.06104 -3.6547,-15.28729 1.4951,-25.44827 1.4004,-2.76303 2.4322,-5.13031 2.2928,-5.26062 -0.8642,-0.80815 -10.0661,-2.97964 -12.6265,-2.97964 -5.0493,0 -6.5574,1.75694 -9.3913,10.94021 -2.8616,9.27326 -5.9069,14.65641 -10.6334,18.79672 -2.7425,2.40241 -3.8042,2.78115 -7.796,2.78115 -8.4466,0 -8.7641,-0.33896 -9.3698,-10.00187 -0.2894,-4.61809 -0.8085,-10.66781 -1.1535,-13.44384 l -0.6272,-5.04732 -4.8898,-2.55427 c -3.6618,-1.91281 -6.2406,-2.60663 -10.2689,-2.76277 -7.4411,-0.28844 -15.806,-2.71838 -16.3361,-4.74551 -0.3662,-1.40016 0.2045,-1.61691 4.8431,-1.8396 l 5.2582,-0.25242 0.2688,-3.75289 c 0.1479,-2.06409 0.8218,-4.30581 1.4976,-4.98163 0.6758,-0.6758 1.2287,-1.91362 1.2287,-2.75069 0,-2.13256 -4.0113,-7.37962 -9.7998,-12.81875 l -4.9188,-4.62195 4.2194,0.49973 c 8.7189,1.03262 13.9222,-1.84302 13.9222,-7.6942 0,-4.04729 -3.5914,-7.29171 -10.0901,-9.11512 -2.773,-0.77809 -8.0874,-3.25831 -11.8096,-5.5116 l -6.7676,-4.09689 -0.2664,-4.16412 c -0.1893,-2.95785 0.2832,-5.32191 1.631,-8.16087 l 1.8976,-3.99675 3.3034,1.78117 3.3035,1.78117 4.2651,-2.35328 c 2.3458,-1.29431 4.6519,-2.35329 5.1246,-2.35329 0.4727,0 2.8551,0.96271 5.2941,2.13935 2.4391,1.17664 4.4934,2.13935 4.5651,2.13935 0.072,0 1.854,-2.21947 3.9605,-4.93218 3.289,-4.23528 4.44,-5.08844 8.1458,-6.03822 3.9096,-1.00199 4.3999,-1.40345 5.2112,-4.26702 4.6311,-16.34643 4.6505,-16.39444 6.2515,-15.5376 0.8469,0.45329 1.685,0.82416 1.8622,0.82416 0.1773,0 3.1636,-3.27321 6.6361,-7.27378 3.4726,-4.00059 6.7224,-7.27859 7.2217,-7.28445 0.4993,-0.006 7.1298,-3.04659 14.7343,-6.75717 13.5868,-6.62952 13.8567,-6.8148 15.5691,-10.68607 1.9417,-4.38952 1.74,-4.2602 4.8197,-3.08928 3.5222,1.33913 4.8315,5.8205 5.6248,19.25257 0.4311,7.29979 1.3475,14.16245 2.3434,17.54965 l 1.6355,5.56231 14.9639,-0.30688 14.9639,-0.30688 0.5621,12.28722 c 0.3091,6.75798 0.5635,15.06919 0.5652,18.46936 0,5.8889 0.1156,6.24031 2.3748,7.40858 2.002,1.03529 2.7948,2.60867 5.0862,10.09504 1.4929,4.87774 2.9537,9.49216 3.2462,10.25427 0.374,0.9746 -3.0389,5.35785 -11.5042,14.77527 -7.3679,8.19656 -12.036,14.08332 -12.036,15.17826 0,0.98375 -0.7904,10.48529 -1.7564,21.11454 -1.5719,17.29438 -1.989,19.75294 -3.9675,23.38821 -2.5922,4.76262 -6.8679,7.97571 -12.2466,9.20303 -4.2641,0.97299 -4.2845,0.97328 -8.6452,0.12159 z" id="path4231" connector-curvature="0" class="mapsvg-region"></path>
    <path style="opacity: 0.96; fill: rgb(105, 224, 49); fill-opacity: 0.512077; stroke-width: 0.5; stroke-miterlimit: 4; stroke-dasharray: none; vector-effect: non-scaling-stroke; stroke: rgb(10, 10, 10);" d="m -405.63554,-235.89003 c -3.5042,-4.42439 -5.9601,-4.55091 -9.0747,-0.46749 -1.8433,2.41675 -2.8625,2.9951 -5.2778,2.9951 -2.5387,0 -2.9275,-0.25156 -2.5602,-1.65612 0.6897,-2.63773 -1.6608,-5.29372 -4.1353,-4.67268 -2.0049,0.5032 -2.0884,0.35351 -2.0884,-3.74253 0,-5.5145 -1.2353,-6.58489 -6.7546,-5.85274 -3.9883,0.52908 -4.2015,0.45284 -4.7406,-1.69517 -0.3105,-1.23704 -2.5027,-4.29851 -4.8716,-6.80326 l -4.3071,-4.5541 3.4086,-3.07945 c 6.0217,-5.44018 6.8326,-8.32616 8.8682,-31.559 l 1.8162,-20.72844 11.8479,-13.17432 c 6.5163,-7.24588 11.8478,-13.55295 11.8478,-14.01573 0,-0.81905 2.4464,-3.54194 16.6049,-18.48135 l 6.839,-7.21632 9.8855,-1.54185 c 5.437,-0.84802 10.4631,-1.54301 11.169,-1.54442 0.706,-0.001 2.2463,1.43674 3.423,3.19588 2.3122,3.45682 3.0173,7.9059 3.8499,24.29281 0.5216,10.26676 0.08,11.50649 -6.9238,19.43834 -3.1661,3.58571 -3.608,4.66269 -4.6111,11.23949 -1.6961,11.1202 -2.0861,21.21462 -0.876,22.67275 0.5662,0.68218 3.1891,2.22908 5.8287,3.43755 2.6397,1.20848 6.1604,3.24087 7.8239,4.51644 3.5729,2.73977 9.0046,5.3143 11.212,5.3143 0.863,0 2.9801,0.83254 4.7048,1.85009 1.8157,1.07134 5.3406,2.0619 8.3741,2.35328 4.6692,0.44852 5.3235,0.74583 6.0214,2.7363 0.9408,2.68308 0.2472,5.88614 -1.8053,8.33676 -1.1019,1.31574 -3.0071,1.97898 -7.0707,2.46149 -5.2026,0.61777 -5.6415,0.84029 -6.7864,3.44162 -0.6733,1.52963 -1.7729,2.78115 -2.4437,2.78115 -0.6708,0 -2.3638,0.96282 -3.7623,2.1396 -1.3986,1.17678 -3.5721,2.34953 -4.8301,2.60612 -8.7094,1.77637 -12.9841,4.42715 -12.9841,8.05147 0,0.96269 -0.3582,1.75036 -0.796,1.75036 -0.4909,0 -0.4909,-1.064 0,-2.77548 1.8088,-6.30694 0.6001,-11.23821 -3.0994,-12.64477 -3.1611,-1.20184 -4.5946,-0.18419 -6.816,4.83878 -1.1168,2.52522 -2.4736,4.59132 -3.0152,4.59132 -0.5415,0 -2.1611,-0.83772 -3.599,-1.8616 l -2.6144,-1.8616 -1.981,2.30311 c -2.3994,2.78944 -3.9613,8.18669 -3.5941,12.41929 l 0.2708,3.12047 -4.8172,0.25355 c -4.7197,0.24847 -4.8727,0.18349 -7.5596,-3.209 z" id="path4233" connector-curvature="0" class="mapsvg-region"></path>
    <path style="opacity: 0.96; fill: rgb(105, 224, 49); fill-opacity: 0.512077; stroke-width: 0.5; stroke-miterlimit: 4; stroke-dasharray: none; vector-effect: non-scaling-stroke; stroke: rgb(10, 10, 10);" d="m -350.90864,-284.23311 c -1.1816,-0.6431 -4.1193,-2.49565 -6.5283,-4.11677 -2.4089,-1.62112 -6.158,-3.67883 -8.3312,-4.57269 l -3.9514,-1.6252 -0.01,-4.2787 c 0,-2.35328 0.6305,-8.32207 1.4084,-13.26396 1.1862,-7.53577 1.7972,-9.39939 3.7875,-11.55248 1.3052,-1.41197 3.7506,-4.62759 5.4343,-7.14583 2.9487,-4.41031 3.0619,-4.86645 3.0812,-12.40822 l 0.02,-7.82959 2.3333,4.27869 c 1.965,3.60332 2.7694,4.32081 5.096,4.54548 1.5195,0.14672 3.3967,-0.088 4.1715,-0.52163 1.0131,-0.56694 2.3395,-0.17908 4.7219,1.38074 3.023,1.9792 3.1987,2.29556 2.0067,3.61274 -0.7186,0.79397 -1.666,2.69737 -2.1055,4.22979 -1.1337,3.95287 0.6156,7.55242 5.7913,11.91657 l 4.2852,3.61333 -2.0456,2.04557 c -1.125,1.12506 -2.0456,2.63662 -2.0456,3.35902 0,0.72239 1.9854,3.50569 4.4119,6.18511 4.9027,5.41376 4.6678,6.087 -2.167,6.21092 -2.9575,0.0536 -3.9066,0.68668 -8.7501,5.83638 -3.4789,3.69886 -5.6285,6.77646 -5.9771,8.55739 -0.5953,3.04219 -1.3975,3.30893 -4.6414,1.54334 z" id="path4235" connector-curvature="0" class="mapsvg-region"></path>
    <path style="opacity: 0.96; fill: rgb(105, 224, 49); fill-opacity: 0.512077; stroke-width: 0.5; stroke-miterlimit: 4; stroke-dasharray: none; vector-effect: non-scaling-stroke; stroke: rgb(10, 10, 10);" d="m -311.35414,-189.03265 c -3.9427,-2.43586 -6.3447,-7.43305 -5.6528,-11.76014 0.8823,-5.51729 -0.2742,-9.13208 -4.4121,-13.79107 -2.0946,-2.35848 -3.8084,-4.89096 -3.8084,-5.62771 0,-0.7368 -1.1231,-2.38872 -2.4958,-3.67099 -1.3727,-1.28227 -2.6242,-3.44603 -2.7812,-4.80832 -0.1989,-1.72638 -1.1929,-3.05558 -3.2804,-4.38656 -4.1593,-2.65193 -7.0219,-5.49603 -8.7139,-8.65742 -0.8583,-1.60363 -2.3277,-2.87604 -3.6369,-3.14932 -1.2083,-0.25224 -3.1595,-0.65848 -4.3362,-0.90276 -1.1766,-0.24431 -2.1393,-0.78389 -2.1393,-1.19909 0,-0.89693 5.6899,-4.54348 8.1295,-5.21004 0.9413,-0.25719 2.242,-1.66131 2.8905,-3.12024 1.0543,-2.37208 1.6747,-2.71087 5.8662,-3.20351 6.1373,-0.72131 7.5634,-1.57531 9.7332,-5.82858 1.3522,-2.65044 1.6982,-4.52434 1.3712,-7.42533 -0.5585,-4.95496 -2.8499,-6.94287 -8.003,-6.94287 -6.9605,0 -12.0513,-3.63484 -9.9849,-7.12915 0.3817,-0.64543 2.6194,-3.29424 4.9727,-5.88624 3.9467,-4.34707 4.6399,-4.75371 8.9336,-5.24071 2.5602,-0.29038 5.2095,-1.08249 5.8872,-1.76025 1.9059,-1.90582 0.544,-5.43257 -3.7988,-9.83759 l -3.852,-3.90714 2.6269,-2.15966 c 1.4447,-1.18781 2.6233,-2.59398 2.6191,-3.12482 0,-0.53084 -2.5108,-3.16272 -5.57,-5.8486 -4.7628,-4.18144 -5.5623,-5.29465 -5.5623,-7.74405 0,-2.00441 0.6179,-3.34666 2.0644,-4.48453 3.0204,-2.37579 3.7513,-8.33983 1.5582,-12.71309 -0.9185,-1.83142 -1.8981,-5.88474 -2.177,-9.00736 l -0.5071,-5.6775 4.3014,0 c 3.5393,0 4.7419,-0.42214 6.7884,-2.38278 2.1765,-2.08522 2.7538,-2.26123 4.6233,-1.40941 1.5353,0.6995 2.4167,2.08662 3.1327,4.9302 l 0.9963,3.95684 3.6202,-0.54287 c 3.1394,-0.47078 3.679,-0.3174 4.0641,1.15511 0.5629,2.15259 0.041,2.65282 -2.7668,2.65282 -1.2408,0 -3.8211,1.151 -5.7341,2.55778 -3.6925,2.71556 -4.5317,5.04442 -4.5513,12.63159 -0.01,3.54873 0.059,3.63689 2.8255,3.63689 2.033,0 3.5309,-0.72631 5.2946,-2.56722 3.0296,-3.16226 4.3518,-3.24141 5.0889,-0.3046 0.3123,1.24444 2.9181,4.71018 5.79069,7.70165 4.5925,4.78257 5.6094,5.43904 8.4259,5.43904 3.3757,0 5.3478,1.74014 9.6364,8.50271 1.0256,1.61722 3.5976,3.95091 5.7155,5.18599 3.7879,2.20885 3.8578,2.33107 4.2787,7.47443 0.4644,5.67556 2.6352,9.04543 6.4422,10.00093 2.2437,0.56313 2.597,1.4344 3.3807,8.337 l 0.5499,4.84364 -3.6888,2.54447 c -2.0289,1.39947 -4.4225,3.35948 -5.3191,4.35557 -2.0838,2.31511 -7.4822,2.43199 -10.6459,0.23049 -5.1454,-3.58044 -10.401,-3.79792 -10.401,-0.4304 0,0.72981 2.1395,5.13891 4.7545,9.798 7.9818,14.22126 8.3031,15.20195 7.1073,21.69195 -0.9321,5.05873 -0.8824,5.73898 0.5337,7.30377 2.5978,2.87049 7.7745,2.29664 15.3131,-1.69741 4.4398,-2.35233 7.5352,-3.42299 9.8963,-3.42299 3.1469,0 3.5826,0.28786 5.1821,3.42299 1.0906,2.13788 2.3429,3.42295 3.3355,3.42295 2.1769,0 3.1795,1.50143 3.8235,5.72623 0.7143,4.68515 -1.2877,6.25277 -7.9912,6.25731 -4.5429,0.004 -5.8814,0.53013 -11.3679,4.47636 -1.2641,0.90919 -2.1694,0.70685 -5.6884,-1.27126 -6.4412,-3.62075 -12.0624,-2.67878 -12.0624,2.02136 0,2.61325 3.3044,8.46214 4.7808,8.46214 0.8043,0 -0.7963,2.34547 -4.0821,5.9819 -5.2525,5.81276 -5.521,5.98211 -9.4975,5.99016 -4.9659,0.0102 -8.8823,1.57339 -11.7389,4.6859 -1.82289,1.98608 -6.19459,4.8921 -7.01739,4.66464 -0.141,-0.039 -1.5226,-0.85315 -3.07,-1.80923 z" id="path4237" connector-curvature="0" class="mapsvg-region"></path>
    <path style="opacity: 0.96; fill: rgb(105, 224, 49); fill-opacity: 0.512077; stroke-width: 0.5; stroke-miterlimit: 4; stroke-dasharray: none; vector-effect: non-scaling-stroke; stroke: rgb(10, 10, 10);" d="m -285.43565,-47.498601 c -2.7169,-0.2059 -3.9727,-0.90487 -6.0882,-3.38843 -2.534,-2.97498 -2.9685,-3.14618 -8.8241,-3.47703 -5.46109,-0.30858 -6.38889,-0.13195 -8.18869,1.55886 l -2.0298,1.90687 -0.5744,-3.06228 c -0.4681,-2.49487 -1.311,-3.48268 -4.5494,-5.33118 -2.1862,-1.24787 -5.744,-4.1489 -7.9063,-6.44668 l -3.9313,-4.17783 -6.4957,0 c -7.4707,0 -10.8636,1.01326 -11.4964,3.43328 -0.4454,1.70301 -1.9568,2.40308 -1.9568,0.90636 0,-0.43713 -1.2515,-2.12052 -2.7811,-3.74084 -2.035,-2.15563 -3.8143,-3.10879 -6.632,-3.55264 -4.6285,-0.72918 -9.4131,-2.30519 -9.4131,-3.10062 0,-0.31695 0.5199,-2.06871 1.1555,-3.89285 1.2408,-3.5615 0.9918,-5.47798 -0.8531,-6.56816 -1.6247,-0.96002 -1.4894,-7.10601 0.1868,-8.48113 4.2003,-3.44599 4.4278,-3.92407 5.0532,-10.619549 0.3465,-3.70861 1.1606,-7.77123 1.8092,-9.02805 1.3748,-2.66404 7.6166,-7.93844 10.4059,-8.79304 2.6489,-0.8116 3.8311,-3.27254 2.8331,-5.89744 -1.0172,-2.67539 -1.857,-3.17329 -8.1662,-4.84143 l -5.1506,-1.36182 0.061,-3.42761 c 0.072,-4.0389 2.6643,-9.69186 5.0384,-10.98709 4.9877,-2.72105 10.8369,-7.12104 15.0103,-11.2913 2.5886,-2.58665 7.0171,-6.82019 9.841,-9.40785 l 5.1345,-4.70488 5.4563,0.51315 c 6.6735,0.62765 8.6633,-0.65496 8.6633,-5.58421 0,-2.93359 0.2299,-3.23823 2.8086,-3.72194 1.5446,-0.28981 4.1418,-1.77671 5.77139,-3.30427 5.3477,-5.0129 6.9349,-5.76083 12.2375,-5.76685 4.3804,-0.005 5.2644,-0.30336 7.2738,-2.45539 8.9396,-9.57389 10.417,-11.41205 10.417,-12.96045 0,-1.0175 -0.8715,-2.13835 -2.0967,-2.69661 -1.6453,-0.74958 -3.8935,-4.45065 -3.8935,-6.40944 0,-1.03779 4.391,0.0859 7.2738,1.8615 4.5963,2.83096 7.6578,2.70851 11.2554,-0.45017 2.4254,-2.12958 3.6626,-2.56721 7.2573,-2.56721 3.7116,0 4.6776,0.36842 6.7316,2.56721 2.103,2.25123 2.9781,2.56721 7.1096,2.56721 4.6513,0 4.7645,0.0609 8.8559,4.76502 2.2794,2.62079 6.5046,7.36955 9.3894,10.55284 2.8848,3.18329 5.4969,6.5813 5.8047,7.55114 0.5774,1.81914 3.1638,3.14805 7.9755,4.09799 2.2631,0.44674 2.9365,1.11797 3.7028,3.69039 1.2023,4.03628 0.351,6.2523 -4.5,11.71444 -7.7411,8.71625 -8.0579,10.01513 -3.9534,16.21173 2.6348,3.97791 2.6697,4.14802 1.0861,5.30597 -0.8998,0.65793 -2.9912,1.54137 -4.6476,1.96312 -9.7949,2.49406 -10.385,2.74481 -11.3275,4.8134 -0.8548,1.87603 -0.6383,2.45009 1.9188,5.08825 l 2.8821,2.97371 -2.9725,0 c -3.6321,0 -6.7763,2.05304 -6.7763,4.42465 0,3.17905 3.4904,8.05509 7.7729,10.8587 2.3372,1.53006 4.2048,3.40516 4.2016,4.21832 -0.01,2.18359 -4.8701,5.07797 -10.8813,6.47854 -5.592,1.3029 -16.2084,7.61052 -18.6312,11.069559 -0.7086,1.01161 -1.2883,3.0372 -1.2883,4.50136 0,1.4641 -0.2441,2.90614 -0.5424,3.20442 -0.2983,0.29832 -2.2779,-0.98526 -4.3992,-2.85244 -4.3827,-3.85787 -5.2772,-3.98227 -10.0338,-1.39524 -3.3886,1.84304 -3.4284,1.92263 -3.9661,7.93235 -0.7002,7.82722 -1.5603,9.28532 -6.4626,10.9557 -4.3739,1.49034 -9.3247,6.06141 -10.1571,9.37804 -0.5528,2.20251 1.167,6.33033 3.4146,8.19573 1.5767,1.30853 1.6916,5.57518 0.2318,8.60421 -0.884,1.83397 -1.5197,2.1023 -4.4541,1.87993 z" id="path4239" connector-curvature="0" class="mapsvg-region"></path>
    <path style="opacity: 0.96; fill: rgb(105, 224, 49); fill-opacity: 0.512077; stroke-width: 0.5; stroke-miterlimit: 4; stroke-dasharray: none; vector-effect: non-scaling-stroke; stroke: rgb(10, 10, 10);" d="m -374.13794,-87.404371 c -1.7207,-0.59461 -4.8699,-2.10163 -6.9983,-3.34895 -2.2584,-1.32353 -5.1604,-2.26792 -6.969,-2.26792 -3.5205,0 -7.0265,-1.60316 -9.2099,-4.21129 -2.2102,-2.64015 -5.2872,-2.25589 -7.8167,0.97615 -1.1859,1.51533 -2.3646,2.54671 -2.6192,2.29202 -0.2547,-0.25469 0.2548,-2.50177 1.1323,-4.9935 0.8775,-2.491689 1.4021,-5.270009 1.1657,-6.173939 -0.2364,-0.90398 -2.08,-2.99578 -4.0969,-4.64846 -2.0168,-1.65264 -3.8681,-3.52884 -4.1138,-4.16932 -0.2458,-0.64048 1.0678,-2.70978 2.9192,-4.59844 4.3309,-4.41816 4.4688,-7.57427 0.5849,-13.38267 -1.5296,-2.28757 -3.8762,-5.92497 -5.2147,-8.08314 -1.3385,-2.15813 -3.2229,-4.77773 -4.1877,-5.82132 -2.1182,-2.29134 -8.7471,-4.60386 -15.181,-5.29593 l -4.7256,-0.50829 0.3153,-12.83609 0.3153,-12.83606 -2.3574,-2.3533 c -1.9093,-1.90598 -3.1299,-2.35327 -6.4216,-2.35327 -3.8669,0 -8.9254,-1.79653 -9.0023,-3.19706 -0.02,-0.35957 -0.6918,-1.88264 -1.4935,-3.38461 -0.8017,-1.50194 -1.8593,-5.54533 -2.3503,-8.98526 l -0.8928,-6.25442 2.3863,-1.97964 c 2.2169,-1.83914 8.5627,-6.29961 13.8941,-9.76614 1.2493,-0.81233 4.856,-1.84295 8.0149,-2.29032 7.0364,-0.99645 11.0556,-3.3659 13.8776,-8.18124 1.7981,-3.06826 2.6995,-3.75779 5.4971,-4.20511 2.4168,-0.38647 3.8706,-1.27139 5.2337,-3.18563 l 1.8873,-2.65057 3.2059,3.5072 c 3.1162,3.40909 3.3595,3.50715 8.7034,3.50715 7.6675,0 8.8082,-1.00983 8.8641,-7.847 0.024,-2.9793 0.5192,-6.2834 1.0998,-7.34236 0.9941,-1.81334 1.1751,-1.8471 3.1094,-0.57961 1.1297,0.74014 3.1378,1.22153 4.4626,1.06964 1.9743,-0.22632 2.8531,-1.16537 4.8742,-5.20814 2.0777,-4.15604 2.6652,-4.76639 3.7341,-3.87928 1.2432,1.03175 1.1497,4.6034 -0.2888,11.02953 -0.6442,2.87789 1.649,5.34319 4.2342,4.55201 2.8414,-0.86955 3.9745,-2.09214 3.9745,-4.28805 0,-2.1652 2.3987,-4.14886 6.1235,-5.06396 1.7844,-0.43841 2.3853,-0.20305 2.7976,1.09579 0.6079,1.91539 3.905,3.62533 6.9902,3.62533 1.5266,0 2.5562,0.77823 3.5966,2.71864 2.0039,3.73715 5.3796,7.01757 8.5896,8.3472 2.2422,0.92872 2.6056,1.45712 2.1769,3.16503 -0.4052,1.61439 0.1424,2.65197 2.5761,4.88113 1.6998,1.557 3.0906,3.38779 3.0906,4.06842 0,0.68068 1.8292,3.33167 4.0648,5.89113 l 4.0647,4.65358 -0.1704,5.95695 c -0.1959,6.84539 1.8302,12.45938 5.3225,14.74762 1.7779,1.16494 2.1217,2.06579 2.1217,5.55956 l 0,4.16936 -6.2041,-0.48024 -6.2041,-0.48029 -4.2787,4.3698 c -2.3533,2.40337 -5.7374,5.33409 -7.5204,6.51267 -1.7829,1.17858 -3.6762,3.09663 -4.2073,4.26234 -0.9433,2.07036 -7.083,6.77689 -13.3705,10.24953 -3.7964,2.09675 -7.0835,8.15438 -7.6555,14.10811 -0.4892,5.09122 1.0265,6.68295 8.1415,8.54987 5.8266,1.52883 6.7009,3.31701 2.582,5.28119 -7.8956,3.76515 -11.5144,9.38528 -12.3412,19.16642 -0.4802,5.68087 -0.8006,6.625809 -2.5105,7.404919 -2.4361,1.10993 -3.065,2.48424 -3.6954,8.07497 l -0.4982,4.41864 -3.1284,-1.08108 z" id="path4241" connector-curvature="0" class="mapsvg-region"></path>
    <path style="opacity: 0.96; fill: rgb(105, 224, 49); fill-opacity: 0.512077; stroke-width: 0.5; stroke-miterlimit: 4; stroke-dasharray: none; vector-effect: non-scaling-stroke; stroke: rgb(10, 10, 10);" d="m -477.20424,-126.88268 c -0.9934,-1.04159 -3.7686,-2.30501 -6.2162,-2.82991 -2.4319,-0.52154 -5.8602,-1.56754 -7.6185,-2.32446 -3.0378,-1.30764 -3.1045,-1.41951 -1.3391,-2.24644 2.0658,-0.96764 3.0329,-3.63024 2.3153,-6.37442 -0.2593,-0.99166 -0.053,-2.06176 0.4588,-2.378 2.0526,-1.26859 0.922,-4.67862 -2.4496,-7.38811 -2.8921,-2.32412 -3.309,-3.07016 -2.8891,-5.16962 0.2699,-1.34945 0,-3.63248 -0.5945,-5.07347 -0.8148,-1.96697 -0.8412,-2.864 -0.106,-3.59923 1.2235,-1.22349 1.2844,-5.48188 0.089,-6.22071 -0.4897,-0.30264 -1.8132,-2.01213 -2.9411,-3.79878 -3.7622,-5.95983 -9.7184,-6.08665 -12.1197,-0.25804 -0.7302,1.77238 -2.1077,4.06741 -3.0612,5.10002 -1.7316,1.87527 -1.7509,2.72873 -0.2032,8.98395 0.5033,2.03419 0.2256,2.44798 -2.3717,3.53316 -3.9313,1.64265 -6.4437,5.0251 -7.1295,9.59872 -0.6386,4.25848 -1.3763,5.08808 -5.2629,5.91882 -2.5239,0.5395 -7.0879,4.66901 -8.2266,7.44351 -0.6729,1.63951 -2.9294,-1.34263 -4.1837,-5.52922 -0.5874,-1.96045 -2.3077,-4.42287 -4.2539,-6.08869 -2.8838,-2.46848 -3.2676,-3.24725 -3.2676,-6.63047 0,-6.45629 -4.4649,-9.26629 -14.7235,-9.26629 -4.4546,0 -7.0139,0.47906 -9.6842,1.81271 -6.3441,3.16838 -8.2591,5.15882 -8.3592,8.68859 -0.082,2.87781 -0.3505,3.22539 -2.8598,3.69615 -1.5233,0.28578 -3.4322,1.25164 -4.2419,2.14635 -2.0293,2.24242 -3.1416,2.0469 -5.3503,-0.9405 -1.6707,-2.2597 -2.4128,-2.5672 -6.1956,-2.5672 -3.9747,0 -4.3627,-0.18684 -5.1644,-2.4864 -1.0746,-3.08282 -3.8092,-4.15322 -10.79,-4.22358 -6.999,-0.0705 -9.077,-1.16837 -8.3632,-4.41842 0.7103,-3.23382 -1.8001,-5.77494 -6.4378,-6.51652 -2.9574,-0.47292 -3.7929,-1.11221 -5.6946,-4.35726 l -2.2287,-3.80302 1.8387,-8.27697 c 1.1604,-5.22349 1.8708,-11.51528 1.9257,-17.05509 0.096,-9.72621 -0.68,-11.8593 -5.3504,-14.69959 l -2.5894,-1.5747 3.0751,-2.34551 c 4.0527,-3.09117 4.6924,-5.77825 2.1833,-9.17193 -1.5744,-2.12949 -1.7583,-2.92911 -0.9657,-4.19824 0.5384,-0.86223 0.979,-2.30241 0.979,-3.20033 0,-0.89792 1.059,-2.76751 2.3533,-4.15466 2.5437,-2.72618 3.4273,-4.29372 6.2188,-11.03261 1.2577,-3.03617 2.7881,-5.01418 4.9664,-6.41905 1.7316,-1.11683 4.3037,-3.83069 5.7156,-6.03081 1.412,-2.20012 3.6561,-4.47297 4.9868,-5.05077 1.3308,-0.57782 3.0461,-2.00674 3.8118,-3.17538 0.7658,-1.16866 2.6475,-2.64928 4.1816,-3.29027 1.5341,-0.641 3.2018,-1.93625 3.706,-2.87834 0.7316,-1.36696 1.7913,-1.71289 5.2474,-1.71289 4.0475,0 14.4775,-3.71153 28.5551,-10.16137 1.8826,-0.86256 5.2574,-2.00971 7.4995,-2.54924 5.2834,-1.27137 9.7062,-4.17555 11.2683,-7.39926 2.5011,-5.16129 8.5786,-6.34104 15.3204,-2.97399 l 3.8688,1.93214 0.5082,6.5111 c 0.2796,3.5811 0.7887,9.752 1.1314,13.7131 l 0.6231,7.20202 2.9951,1.07634 c 4.0451,1.4537 12.2566,1.47164 15.6966,0.0343 5.7864,-2.4177 11.7304,-11.38699 15.1021,-22.78843 1.0439,-3.52992 2.29,-6.8994 2.7692,-7.48772 1.0283,-1.26255 5.66,-1.40438 8.6566,-0.26508 l 2.1163,0.8046 -2.1859,5.39951 c -5.5731,13.76663 -2.2797,26.92403 8.1617,32.60695 5.5516,3.02159 11.8278,4.19991 17.063,3.20349 4.0699,-0.77463 4.0794,-0.77087 8.2356,3.23303 2.2886,2.20471 4.6731,5.19446 5.2989,6.6439 1.7657,4.08926 3.2506,4.91577 7.6471,4.25649 l 3.8586,-0.57865 0,3.84216 c 0,4.15708 1.5777,6.53161 4.3398,6.53161 1.1793,0 1.6504,0.59626 1.6504,2.08883 0,1.14885 0.3836,2.32595 0.8526,2.6158 1.2802,0.79118 -1.2554,5.12514 -4.2432,7.25264 -1.4084,1.00285 -4.9739,2.21201 -7.9234,2.687 -2.9494,0.47499 -6.9053,1.60753 -8.7908,2.51668 -4.0508,1.95333 -15.7731,10.42323 -17.4005,12.57267 -1.2247,1.61753 -0.8347,8.56211 0.8652,15.40953 0.6839,2.75439 0.6451,3.9514 -0.1592,4.92052 -1.5238,1.83609 0.05,3.39923 4.7473,4.71433 2.1212,0.59388 4.062,1.41205 4.313,1.81812 0.251,0.40613 2.3315,0.73837 4.6234,0.73837 4.9762,0 6.8565,1.5171 6.8565,5.53186 0,3.67209 -0.7948,3.97185 -12.6333,4.76486 -11.1187,0.74484 -13.5203,1.81334 -14.3804,6.39818 -0.5461,2.9111 0.4442,8.70685 2.2826,13.35891 0.9007,2.27918 3.9118,4.17575 6.6297,4.17575 2.0407,0 3.5539,1.66794 3.5539,3.91721 0,2.42549 -1.2357,3.31681 -6.3192,4.55795 -2.2988,0.56131 -5.6683,1.77996 -7.4877,2.70813 -2.8665,1.46237 -3.3079,2.0782 -3.3079,4.61479 0,3.65794 -0.7861,4.08816 -3.0782,1.68483 z" id="path4243" connector-curvature="0" class="mapsvg-region"></path>
    <path style="opacity: 0.96; fill: rgb(105, 224, 49); fill-opacity: 0.512077; stroke-width: 0.5; stroke-miterlimit: 4; stroke-dasharray: none; vector-effect: non-scaling-stroke; stroke: rgb(10, 10, 10);" d="m -441.50684,81.469399 c -1.675,-1.36457 -2.801,-1.5592 -6.3201,-1.0924 l -4.2819,0.5681 0.5945,-3.9647 c 0.5274,-3.51689 0.3515,-4.2077 -1.5566,-6.11587 -1.3559,-1.35585 -3.1145,-2.15106 -4.7572,-2.15106 -1.7832,0 -2.6061,-0.41875 -2.6061,-1.32612 0,-3.27084 -2.5862,-6.24466 -6.6156,-7.60717 -3.2861,-1.11111 -4.6647,-2.24128 -7.0763,-5.80094 -1.6473,-2.43149 -4.6316,-5.5763 -6.6319,-6.98845 -2.938,-2.07404 -3.6369,-3.07484 -3.6369,-5.20745 0,-3.24962 -1.6846,-5.75867 -5.414,-8.06353 -1.5664,-0.96811 -3.8605,-3.6205 -5.0981,-5.89426 -1.2375,-2.27372 -3.0368,-4.8461 -3.9985,-5.71641 -0.9616,-0.8703 -1.7485,-1.89572 -1.7485,-2.2788 0,-1.94477 8.252,-13.1125103 10.7998,-14.6157703 3.6807,-2.17163 4.3527,-4.84101001 2.4638,-9.7869 -1.1231,-2.9408 -2.4076,-4.45205 -5.2365,-6.1607697 -3.3194,-2.00501 -3.7484,-2.61838 -3.7484,-5.36014 0,-3.07482 0.029,-3.09951 4.2542,-3.59992 5.6476,-0.66886 7.7262,-1.87476 7.7262,-4.48233 0,-1.66412 -0.8254,-2.52134 -3.8358,-3.98393 -3.373,-1.63875 -3.6919,-2.02449 -2.6432,-3.19786 0.6558,-0.73392 1.4402,-3.25979 1.7431,-5.61305 0.9945,-7.72784 1.1204,-7.96428 5.2036,-9.77046 2.8385,-1.25563 4.1244,-2.42566 4.802,-4.36963 0.5313,-1.52388 2.2816,-3.51088 4.1089,-4.66439 l 3.1834,-2.00954 -0.3657,-9.27497 c -0.3145,-7.97645 -0.6081,-9.48465 -2.0971,-10.77256 -0.9523,-0.82363 -2.509,-1.49752 -3.4594,-1.49752 -1.5408,0 -1.6811,-0.41557 -1.2956,-3.83555 0.3205,-2.84414 1.1108,-4.46942 3.0573,-6.28776 3.2568,-3.04224 4.0518,-6.00994 2.8565,-10.663099 -0.5089,-1.9812 -1.1692,-5.33502 -1.4673,-7.453 -0.2981,-2.11793 -1.0827,-4.70369 -1.7434,-5.74614 -1.7927,-2.82809 -1.5249,-3.76066 2.2215,-7.7381 2.3209,-2.46394 3.423,-4.40897 3.423,-6.04098 0,-2.83317 3.3044,-4.78359 9.7392,-5.74852 4.8789,-0.73167 7.3756,-3.46772 7.3756,-8.08284 0,-3.87329 -2.1426,-6.06882 -6.6348,-6.79858 -2.7871,-0.4528 -3.3462,-0.94778 -4.2772,-3.7871 -1.8346,-5.59496 -2.138,-9.41496 -0.8817,-11.09908 0.947,-1.26952 2.9969,-1.68364 11.0802,-2.23839 5.455,-0.37439 10.3073,-0.92118 10.7829,-1.21514 0.5682,-0.35113 0.7214,1.88404 0.4468,6.51708 -0.241,4.0666 -0.029,8.04764 0.502,9.40476 0.83,2.1237 1.3305,2.35331 5.1295,2.35331 2.3154,0 6.6571,0.78068 9.6483,1.73486 l 5.4385,1.73485 5.7762,8.85074 c 3.1769,4.8679 5.7762,9.45495 5.7762,10.19344 0,0.7385 -1.5403,3.12243 -3.4229,5.29763 -1.8826,2.17519 -3.423,4.3357 -3.423,4.80111 0,1.88086 2.6269,5.60738 5.5851,7.92307 3.3831,2.64825 3.4264,3.03196 1.1808,10.463689 -1.4467,4.78786 -0.6925,6.33511 3.0881,6.33511 2.5054,0 3.3266,-0.4655 4.5195,-2.56179 1.5989,-2.81 3.1345,-3.30079 3.9203,-1.25304 0.6973,1.81723 7.1809,4.62897 10.7264,4.6518 1.7454,0.011 4.4995,1.03127 6.8459,2.53545 4.1696,2.67302 10.5481,4.52554 12.7166,3.6934 1.0758,-0.41286 1.1824,-0.0612 0.604,1.99267 -2.0613,7.31992 0,10.08286 8.5431,11.47394 4.4762,0.72854 5.4722,1.26961 8.2285,4.46985 2.6729,3.10353 3.0056,3.92703 2.2531,5.5784 -0.7792,1.71033 -1.5063,1.93741 -6.2029,1.93741 -5.9446,0 -6.4313,0.35762 -8.0151,5.88871 -0.5905,2.06219 -2.3908,5.10566 -4.0007,6.76326 -4.5867,4.72283 -3.4562,8.37361 3.0631,9.89185 1.4444,0.33636 2.7064,1.68992 3.8847,4.16657 1.1125,2.33823 2.8476,4.26509 4.7853,5.3141 1.957,1.05952 3.3167,2.57932 3.8169,4.26636 0.4274,1.44132 1.6025,3.02628 2.6112,3.52206 2.4753,1.21662 4.5839,3.02124 4.5839,3.92306 0,0.40671 -1.2515,1.27122 -2.7811,1.92114 -1.5296,0.64988 -3.8562,2.19192 -5.1703,3.4267597 -2.4908,2.34077 -6.5733,10.19806 -6.5878,12.67916 0,0.7947 -1.6288,2.33175 -3.6452,3.44951 l -3.6369,2.0161 0,9.5270903 c 0,8.63331 -0.1828,9.7548 -1.949,11.9538 -1.0719,1.33467 -2.5212,3.67819 -3.2205,5.20783 -1.0814,2.36533 -1.7496,2.80106 -4.4691,2.91424 -5.0852,0.21166 -7.3783,-0.17303 -8.8272,-1.48084 -1.8111,-1.63481 -4.692,-1.53773 -7.7365,0.26066 -1.7225,1.01754 -3.569,3.70755 -5.9082,8.60717 -1.8715,3.91986 -3.4027,7.62255 -3.4027,8.22824 0,1.28359 -2.0369,3.10084 -5.3074,4.73506 -2.2419,1.1203 -4.1057,4.68271 -4.1057,7.84771 0,1.06468 -1.8694,2.46869 -5.9902,4.49876 -5.3364,2.62893 -5.9901,2.77816 -5.9901,1.36733 0,-0.87103 -0.9294,-2.66412 -2.0653,-3.98467 -1.6955,-1.97113 -2.7568,-2.40102 -5.9274,-2.40102 -6.7279,0 -12.1579,6.01371 -8.7902,9.7351 0.9191,1.0155 1.3938,2.65706 1.2258,4.23899 l -0.2741,2.5817 -2.0382,-1.66045 z" id="path4245" connector-curvature="0" class="mapsvg-region"></path>
    <path style="opacity: 0.96; fill: rgb(105, 224, 49); fill-opacity: 0.512077; stroke-width: 0.5; stroke-miterlimit: 4; stroke-dasharray: none; vector-effect: non-scaling-stroke; stroke: rgb(10, 10, 10);" d="m -137.07405,27.933259 c -0.6459,-0.77886 -2.426,-1.93931 -3.9556,-2.57869 -1.6054,-0.67106 -2.7891,-1.79076 -2.7999,-2.64857 -0.01,-0.81736 -0.7369,-3.0672 -1.6145,-4.99964 -2.3532,-5.1817 -7.697,-7.60337 -15.1034,-6.84455 -4.7918,0.49092 -5.684,0.34564 -7.2025,-1.1727303 -0.9532,-0.9532 -1.733,-2.12297 -1.733,-2.59949 0,-0.47652 -2.0995,-2.20938 -4.6655,-3.85084 -5.5525,-3.55188001 -8.6182,-3.75557001 -14.6,-0.96993 -2.3596,1.09874 -5.8253,2.49758 -7.7017,3.10849 -1.8764,0.61087 -4.1711,1.63354 -5.0995,2.27254 -2.1163,1.45673 -6.8125,1.51129 -7.9303,0.0922 -0.4634,-0.5883 -1.1191,-2.22277 -1.4572,-3.63211 -0.3381,-1.4093 -1.0159,-3.04593 -1.5064,-3.63689001 -1.1152,-1.34378 -6.8497,-1.41045 -8.1652,-0.0949 -1.5239,1.52388001 -2.3309,-3.08035999 -1.0724,-6.11861999 0.6348,-1.53239 0.8065,-3.64579 0.4332,-5.3317697 -0.3401,-1.53619 -0.7964,-6.13756 -1.014,-10.22525 -0.2259,-4.24552 -0.8287,-7.76686 -1.4058,-8.21284 -1.5111,-1.16765 -9.6041,-3.61254 -11.8679,-3.5853 -1.0882,0.0131 -3.5043,1.17807 -5.3691,2.58889 -1.8648,1.41078 -5.8985,3.33972 -8.9638,4.28648 -3.0652,0.94676 -6.3759,2.47555 -7.3571,3.39737 -1.1958,1.1233 -3.6014,1.86531 -7.2954,2.25016 -4.5985,0.47911 -5.9018,0.99158 -7.8691,3.09443 -2.2449,2.39935 -2.4565,2.4556 -4.4144,1.17274 -1.9037,-1.24737 -2.0232,-1.74701 -1.6085,-6.72738 0.2463,-2.95897 0.9813,-6.23283 1.6332,-7.27527 1.5667,-2.50532 1.5004,-4.95055 -0.268,-9.88454 -1.2395,-3.45818 -1.3052,-4.66348 -0.4321,-7.92785 1.722,-6.43846 1.3386,-9.66525 -1.5376,-12.9411 -1.412,-1.60816 -2.5672,-3.30841 -2.5672,-3.7784 0,-1.75163 5.7004,-6.45342 9.6452,-7.95556 4.991,-1.90043 6.6658,-4.72602 7.2711,-12.26686 0.3968,-4.94319 0.6421,-5.48743 3.0053,-6.66635 2.5197,-1.25698 2.6506,-1.21251 6.2822,2.13496 2.0398,1.88022 4.4657,3.41867 5.3909,3.41867 2.2248,0 4.3463,-3.15288 4.3463,-6.45931 0,-1.66403 0.7189,-3.30993 1.9254,-4.40829 4.1491,-3.777049 11.5553,-7.850349 15.8969,-8.743019 5.3962,-1.10954 7.4675,-2.09201 10.631,-5.04263 4.0198,-3.74923 2.9221,-8.18523 -2.8245,-11.41503 -3.6122,-2.03016 -7.3144,-6.90968 -6.3843,-8.41458 0.2962,-0.47922 1.9791,-0.87133 3.7398,-0.87133 5.4768,0 6.9623,-3.50499 3.1158,-7.35159 -3.4087,-3.40859 -2.981,-3.91001 4.2952,-5.03599 1.8917,-0.29272 4.9724,-1.38951 6.8459,-2.43725 4.4255,-2.47496 4.7526,-4.95475 1.3214,-10.01894 -1.4247,-2.10294 -2.5975,-4.23726 -2.606,-4.74296 -0.01,-0.50574 2.1433,-3.39385 4.7818,-6.41804 2.6386,-3.02421 5.4055,-6.75009 6.1487,-8.27973 1.1864,-2.44179 1.7646,-2.78115 4.739,-2.78115 2.825,0 3.8293,0.51095 6.0469,3.0763 2.1553,2.49321 3.3043,3.10145 6.0622,3.20904 3.3929,0.13233 3.406,0.14643 4.4254,4.74275 1.1868,5.35146 2.6649,7.15637 5.8608,7.15637 3.2316,0 4.8256,-1.97163 5.3491,-6.61649 0.2487,-2.20645 0.9625,-4.20757 1.5863,-4.44693 0.6237,-0.23931 3.2161,0.75612 5.7609,2.21209 2.5447,1.45598 5.2071,2.64723 5.9164,2.64723 0.7093,0 1.7648,1.14732 2.3456,2.54958 0.5809,1.40232 3.3232,5.11774 6.094,8.25647 2.7709,3.13878 5.0379,6.08695 5.0379,6.55147 0,0.46453 -0.9887,1.76096 -2.1972,2.88091 -2.6314,2.43866 -2.5078,5.48683 0.2718,6.70633 1.3283,0.58275 1.9254,1.57792 1.9254,3.209 0,4.56028 5.2991,7.30221 9.2926,4.80828 1.26,-0.78695 2.5543,-0.52726 6.5971,1.32357 6.0635,2.77594 8.0637,4.46831 8.0935,6.84788 0.055,4.42952 2.8781,8.27689 8.107,11.05008 5.916,3.13754 10.688998,9.25752 10.708498,13.730459 0.021,4.81433 0.8791,6.36345 4.2785,7.72366 1.7963,0.71867 3.4695,1.6362 3.7184,2.03893 0.2489,0.40273 0.1854,2.56929 -0.1411,4.81459 -0.5115,3.51706 -1.0677,4.40347 -4.0167,6.40127 -1.8826,1.27546 -3.9554,3.4573 -4.6063,4.84855 -0.6508,1.39131 -1.7722,3.20659 -2.4921,4.03408 -1.114798,1.28142 -1.510298,1.33217 -2.667498,0.34216 -0.7473,-0.63925 -4.878,-2.5678 -9.1794,-4.28563 -9.0828,-3.62737 -14.3092,-4.04526 -17.6571,-1.41185 -1.4219,1.11844 -3.4716,1.71148 -5.9152,1.71148 -6.204,0 -7.2064,1.2907 -7.7765,10.01284 -0.2707,4.1414 -0.8921,8.57592 -1.3809,9.85447 -0.5376,1.40599 -3.0982,3.767 -6.4798,5.9746 -9.2189,6.01842 -10.1153,10.32327 -4.0216,19.31433 1.8281,2.6975 5.5013,8.23079 8.1626,12.2963 2.6742,4.08532 5.6068,7.5926897 6.5559,7.8408997 2.4636,0.64425 7.1508,-0.83681 8.954,-2.8292797 1.7622,-1.94718 3.297,-2.10751 7.1889,-0.75077 2.2714,0.7917797 2.6973,1.3426697 2.481,3.2089997 -0.2009,1.7338 -0.7969,2.31489 -2.5853,2.52108 -1.484,0.17113 -3.2754,1.46899 -4.9555,3.59035 -1.4473,1.82731999 -3.421,3.57297 -4.386,3.87926 -2.7447,0.87115 -4.1074,5.23332 -3.5511,11.3681703 0.3741,4.12519 0.9147,5.68828 2.3609,6.82586 1.1408,0.89733 2.1028,2.89582 2.4554,5.10062 0.5458,3.41338 0.4602,3.6252 -1.465,3.6252 -1.1245,0 -2.5732,-0.63726 -3.2191,-1.41616 z" id="path4247" connector-curvature="0" class="mapsvg-region"></path>
    <a xmlns:xlink="http://www.w3.org/1999/xlink" xlink:href="http://biz.koupravlja.rs/stari-grad/"><path connector-curvature="0" id="path4531" d="m 595.28459,-558.42736 c -24.77847,-3.60663 -41.48537,-7.59429 -47.17677,-11.26039 -4.9151,-3.16611 -12.5216,-19.35218 -42.1929,-89.78395 -12.5988,-29.90608 -28.2571,-65.28365 -34.7963,-78.61683 l -11.8893,-24.2422 5.1214,-4.30605 c 8.6065,-7.23619 55.951,-74.24579 72.8521,-103.11199 3.2171,-5.4945 4.5747,-6.3721 9.8582,-6.3721 3.37,0 65.29278,8.4112 137.60612,18.6913 72.3134,10.2803 132.68362,18.6913 134.1561,18.6913 1.80782,0 3.77227,3.5424 6.04889,10.9075 6.44646,20.8551 19.78751,85.71219 23.14955,112.54124 l 1.0968,8.75207 -72.23872,58.16244 c -95.50908,76.89842 -107.67387,85.53415 -127.90668,90.79996 -12.68551,3.30162 -26.67603,3.07951 -53.68849,-0.8523 z" style="opacity: 0.96; fill: rgb(66, 230, 39); fill-opacity: 0.512077; stroke-width: 0.5; stroke-miterlimit: 4; stroke-dasharray: none; vector-effect: non-scaling-stroke; stroke: rgb(10, 10, 10);" class="mapsvg-region"></path></a>
    <a xmlns:xlink="http://www.w3.org/1999/xlink" xlink:href="http://biz.koupravlja.rs/savski-venac/"><path connector-curvature="0" id="path4537" d="m 738.17273,175.9729 c -14.44848,-3.7687 -28.43523,-12.1527 -41.65224,-24.9672 -12.56303,-12.1803 -15.63626,-19.7517 -13.01056,-32.0532 1.34528,-6.3026 1.20266,-8.471 -0.68085,-10.353 -3.19888,-3.1964 -11.83241,-0.6089 -48.38576,14.5012 -40.3324,16.6724 -54.9297,20.7732 -74.689,20.9825 -30.2584,0.3202 -29.5374,1.0596 -63.9377,-65.562201 -29.7736,-57.6617 -41.1554,-73.8819303 -62.6861,-89.33446 -14.051,-10.08438 -29.7766,-24.27262 -32.2939,-29.13687 -5.8145,-11.23522 -10.0506,-56.60862 -13.0497,-139.775609 l -2.124,-58.90352 -20.1723,-21.8089 c -23.3268,-25.21925 -34.4442,-38.50843 -48.0966,-57.49229 -10.1164,-14.06699 -21.2231,-35.1054 -21.2231,-40.20091 0,-1.79349 21.7447,-20.19345 56.5428,-47.84547 31.0986,-24.71225 85.6222,-68.01408 121.1634,-96.22631 l 64.6204,-51.29497 16.9251,0.99434 c 23.4028,1.37484 64.49511,5.69327 75.75158,7.96078 14.97204,3.016 25.45506,8.64266 39.45703,21.17824 l 13.096,11.72445 0.0673,81.56203 c 0.0923,112.3589 -2.30645,155.07796 -10.13846,180.56562 -4.14767,13.49775 -2.83876,16.68196 9.96365,24.23883 12.09139,7.13708 15.75356,10.18793 14.55522,12.12541 -0.51918,0.83912 3.2603,6.06301 8.39858,11.60859 5.89314,6.36034 10.63568,13.53698 12.84537,19.43844 8.38916,22.40444 13.5102,61.10355 18.00285,136.044379 4.64672,77.5102 5.78911,81.9994 32.20044,126.5363 17.32233,29.210301 22.93642,49.127801 23.05372,81.789801 l 0.0539,14.6162 -14.02944,1.0913 c -20.65778,1.6068 -28.0941,1.2392 -40.52582,-2.0035 l -1.3e-4,0 z" style="opacity: 0.96; fill: rgb(17, 69, 9); fill-opacity: 0.512077; stroke-width: 0.5; stroke-miterlimit: 4; stroke-dasharray: none; vector-effect: non-scaling-stroke; stroke: rgb(10, 10, 10);" class="mapsvg-region"></path></a>
    <a xmlns:xlink="http://www.w3.org/1999/xlink" xlink:href="http://biz.koupravlja.rs/vracar/"><path connector-curvature="0" id="path4539" d="m 799.5302,-190.79894 c -36.10731,-5.90953 -96.08368,-30.20166 -109.04056,-44.16456 -6.3771,-6.87224 -6.93109,-11.69296 -3.15774,-27.47895 6.66577,-27.88671 7.36063,-40.70172 7.61558,-140.44867 0.17642,-68.9585 0.83613,-99.22421 2.29117,-105.08099 6.60726,-26.59557 14.85998,-31.81213 52.25924,-33.03329 40.09943,-1.30937 47.67292,2.59479 94.66466,48.80011 47.29873,46.50709 46.89275,46.26843 81.20746,47.73666 19.38644,0.8295 26.29779,1.78596 32.32931,4.474 22.83152,10.17521 31.13441,32.20238 36.36582,96.47668 l 2.4814,30.48654 -4.29117,5.19685 c -12.20041,14.77523 -80.43051,81.79733 -92.692,91.05093 -15.79012,11.91662 -32.86755,20.62973 -48.0989,24.54075 -9.44845,2.4261 -40.63518,3.29321 -51.93427,1.44394 z" style="opacity: 0.96; fill: rgb(17, 69, 9); fill-opacity: 0.512077; stroke-width: 0.5; stroke-miterlimit: 4; stroke-dasharray: none; vector-effect: non-scaling-stroke; stroke: rgb(10, 10, 10);" class="mapsvg-region"></path></a>
    <path connector-curvature="0" id="path5170" d="m 1032.7193,231.173 c -5.728,-5.7236 0.3589,-108.6948 8.1675,-138.168601 7.8209,-29.5204 62.0058,-69.2939 111.9437,-82.17038 24.0605,-6.2039703 73.0458,-15.2726703 82.5363,-15.2800803 5.5544,-0.004 5.9405,7.65626 5.7819,114.6919613 l -0.1704,114.6966 -13.2968,-25.983 c -15.3981,-30.089 -25.204,-39.0646 -46.0987,-42.1955 -26.2618,-3.9351 -35.7196,0.061 -69.9231,29.5549 -47.646,41.0833 -70.0019,53.7859 -78.9407,44.8541 z" style="opacity: 0.96; fill: rgb(107, 109, 110); fill-opacity: 1; stroke-width: 0.5; stroke-miterlimit: 4; stroke-dasharray: none; vector-effect: non-scaling-stroke; stroke: rgb(10, 10, 10);" class="mapsvg-region mapsvg-disabled mapsvg-disabled"></path>
    <path connector-curvature="0" id="path5172" d="m 730.53857,392.31454 c -6.6682,-9.3416 -7.88311,-15.2374 -7.87799,-38.2322 0.007,-38.5334 8.50585,-56.9996 49.86841,-108.37294 20.22816,-25.1239 23.369,-36.9739 12.78396,-48.2324 l -7.72635,-8.2179 8.90268,0 c 12.55918,0 19.49162,-11.5622 19.49162,-32.5091 0,-20.2432 -6.97264,-41.5883 -28.23504,-86.435501 -18.90201,-39.8687 -21.08383,-50.2646 -29.43521,-140.25635 -3.6823,-39.679659 -8.86604,-82.489759 -11.51935,-95.133599 -2.65332,-12.64384 -3.77618,-23.63603 -2.49527,-24.4271 1.28096,-0.79101 9.13377,0.2106 17.45074,2.22619 8.31697,2.01547 40.37478,3.83197 71.2395,4.03658 67.29437,0.4461 63.65032,1.89576 113.88686,-45.30329 l 35.89985,-33.72922 30.56952,13.91338 c 46.0536,20.96083 55.4411,30.45243 67.4686,68.21674 5.4756,17.19226 12.6195,40.84787 15.8755,52.56801 l 5.9199,21.30931 41.1956,-2.56949 c 22.6575,-1.41319 47.9956,-2.59136 56.3068,-2.618 l 15.1111,-0.0471 11.1209,33.984229 c 13.4993,41.25272 14.1858,51.60691 3.7211,56.12518 -4.2088,1.81717 -26.0183,7.10822 -48.4654,11.7579597 -49.0919,10.16881999 -79.2632,24.0971703 -112.0694,51.7358703 -36.5666,30.8067 -41.2118,44.8424 -44.9822,135.916201 -1.8603,44.9361 -1.3985,52.7571 3.562,60.3219 4.548,6.9357 8.4598,8.6918 19.361,8.6918 18.4448,0 33.7811,-8.4857 66.3955,-36.7375 35.1849,-30.4784 49.315,-38.0277 71.1773,-38.0277 16.8307,0 32.2671,6.7667 32.2671,14.1445 0,1.9601 7.6524,19.299 17.0054,38.531 l 17.0054,34.9671 0,71.72494 0,71.7248 -251.4481,0 -251.44804,0 -7.88399,-11.0448 z" style="opacity: 0.96; fill: rgb(107, 109, 110); fill-opacity: 1; stroke-width: 0.5; stroke-miterlimit: 4; stroke-dasharray: none; vector-effect: non-scaling-stroke; stroke: rgb(10, 10, 10);" class="mapsvg-region mapsvg-disabled mapsvg-disabled"></path>
    <path connector-curvature="0" id="path5174" d="m 1227.9411,-90.260791 c -5.7956,-17.289409 -11.8798,-33.554539 -13.5206,-36.144689 -2.5381,-4.00683 -10.521,-3.94224 -53.5132,0.43265 -37.4743,3.81366 -51.4938,4.15244 -54.2601,1.31098 -2.0515,-2.1073 -9.9439,-23.16604 -17.5386,-46.79722 -7.5946,-23.63119 -16.48,-47.03986 -19.7452,-52.0193 -3.2652,-4.97945 -20.0217,-17.33652 -37.2367,-27.46019 -17.215,-10.12367 -33.07202,-20.5401 -35.23781,-23.14761 -3.00953,-3.62344 -2.62557,-9.85305 1.62904,-26.4289 7.26117,-28.28975 5.13617,-96.10217 -3.68668,-117.65007 -8.38222,-20.47174 -24.99596,-33.94319 -45.01133,-36.49794 -50.78791,-6.4826 -56.40571,-8.16547 -69.31983,-20.76591 -6.93479,-6.76634 -15.44253,-17.63533 -18.90612,-24.15339 l -6.29744,-11.85095 11.90372,-10.14708 c 6.54713,-5.58091 46.98386,-38.42506 89.85943,-72.98693 l 77.95572,-62.83972 52.9857,52.06748 c 29.1422,28.63714 69.3032,67.95763 89.2466,87.37884 l 36.2607,35.31137 13.9051,-5.55938 13.9052,-5.55944 0,217.4713 c 0,119.60915 -0.6391,217.471229 -1.4201,217.471229 -0.781,0 -6.1619,-14.14591 -11.9575,-31.43539 z" style="opacity: 0.96; fill: rgb(107, 109, 110); fill-opacity: 1; stroke-width: 0.5; stroke-miterlimit: 4; stroke-dasharray: none; vector-effect: non-scaling-stroke; stroke: rgb(10, 10, 10);" class="mapsvg-region mapsvg-disabled mapsvg-disabled"></path>
    <path connector-curvature="0" id="path5176" d="m 1126.4323,-589.39513 c -59.4415,-58.90022 -87.5854,-84.57782 -91.1876,-83.19659 -2.8657,1.09883 -37.63913,27.00022 -77.27441,57.55876 -81.48347,62.82323 -105.27846,79.67334 -116.47715,82.48182 -5.01357,1.25729 -17.44886,-2.39939 -34.83651,-10.24404 -35.92401,-16.20747 -53.65024,-16.28956 -97.43763,-0.45149 -25.90785,9.37089 -32.47901,10.71659 -32.47901,6.65122 0,-9.30602 31.52826,-39.16311 103.73285,-98.23444 39.28242,-32.13739 73.5135,-60.95425 76.06904,-64.03753 3.40157,-4.10399 4.01408,-10.66336 2.28612,-24.48234 -4.07367,-32.57905 -21.54509,-114.38091 -25.21245,-118.04541 -5.02044,-5.0165 -69.24751,-16.8499 -178.98252,-32.9761 -52.37661,-7.6971 -97.83901,-15.0682 -101.02771,-16.3802 -3.1886,-1.3121 -31.8373,-22.2662 -63.6636,-46.565 l -57.8661,-44.1794 50.0593,-2.1101 c 27.5327,-1.1605 209.61232,-2.3075 404.62153,-2.5488 l 354.56225,-0.4387 0,237.97339 0,237.97338 -8.7241,3.31434 c -4.7983,1.82289 -11.3028,3.27323 -14.4546,3.22303 -3.1517,-0.0471 -44.4202,-38.42876 -91.7077,-85.28566 z" style="opacity: 0.96; fill: rgb(107, 109, 110); fill-opacity: 1; stroke-width: 0.5; stroke-miterlimit: 4; stroke-dasharray: none; vector-effect: non-scaling-stroke; stroke: rgb(10, 10, 10);" class="mapsvg-region mapsvg-disabled mapsvg-disabled"></path>
    <path connector-curvature="0" id="path5178" d="m 219.69702,-765.25272 c -10.3978,-11.48055 -12.1405,-29.59075 -12.2244,-127.03475 l -0.081,-94.3061 97.3849,0 97.3848,0 39.5085,31.7935 c 46.3441,37.2943 75.2197,65.4611 75.2197,73.3731 0,7.2153 -23.6908,55.3061 -36.3908,73.8708 -12.4877,18.2544 -23.4464,26.7371 -40.2531,31.1583 -15.0325,3.9544 -74.7574,9.46039 -134.2228,12.37384 -21.5118,1.05396 -48.3612,2.726 -59.6652,3.71556 -17.5645,1.53767 -21.4409,0.81873 -26.6605,-4.94425 z" style="opacity: 0.96; fill: rgb(107, 109, 110); fill-opacity: 1; stroke-width: 0.5; stroke-miterlimit: 4; stroke-dasharray: none; vector-effect: non-scaling-stroke; stroke: rgb(10, 10, 10);" class="mapsvg-region mapsvg-disabled mapsvg-disabled"></path>
    <path connector-curvature="0" id="path5182" d="m 209.59842,-385.63643 c -1.2138,-17.08682 -2.2069,-108.32776 -2.2069,-202.75749 l 0,-171.69042 7.7491,7.27421 7.7491,7.27427 84.9302,-4.82294 c 46.7116,-2.65258 98.3817,-5.64698 114.8223,-6.65417 l 29.8922,-1.83131 7.0171,16.11489 c 21.2437,48.78577 67.5411,167.74414 67.5411,173.54271 0,8.95796 -16.476,23.40894 -137.4665,120.57025 l -101.7552,81.7145 -24.0846,4.06101 c -13.2465,2.23353 -30.3613,5.00844 -38.0328,6.16629 l -13.9482,2.10535 -2.2069,-31.06715 z" style="opacity: 0.96; fill: rgb(107, 109, 110); fill-opacity: 1; stroke-width: 0.5; stroke-miterlimit: 4; stroke-dasharray: none; vector-effect: non-scaling-stroke; stroke: rgb(10, 10, 10);" class="mapsvg-region mapsvg-disabled mapsvg-disabled"></path>
    <path connector-curvature="0" id="path5184" d="m 207.39152,31.386599 0,-371.972729 11.0535,-1.85613 c 42.9193,-7.20712 55.0693,-8.23342 58.9892,-4.98274 4.3664,3.62096 65.7236,81.80655 78.806,100.4202 14.9936,21.33272 20.143,58.28154 27.8834,200.073829 5.9952,109.82427 11.0904,261.104071 9.8452,292.308471 l -1.2187,30.54124 -42.5134,63.6027 -42.5135,63.6028 -50.1659,0.1178 -50.1658,0.1177 0,-371.972741 z" style="opacity: 0.96; fill: rgb(107, 109, 110); fill-opacity: 1; stroke-width: 0.5; stroke-miterlimit: 4; stroke-dasharray: none; vector-effect: non-scaling-stroke; stroke: rgb(10, 10, 10);" class="mapsvg-region mapsvg-disabled mapsvg-disabled"></path>
    <path connector-curvature="0" id="path5186" d="m 339.05532,400.38504 -12.882,-2.1232 32.4974,-47.5779 c 17.8735,-26.1678 35.6801,-51.5822 39.5702,-56.4763 6.7097,-8.4417 7.2379,-15.0707 10.2904,-129.13984 3.5904,-134.171301 5.7951,-163.1302413 12.5906,-165.38234131 2.5103,-0.83190999 12.2826,6.69051001 21.7159,16.71644031 13.0889,13.9111 23.8674,32.0746 45.5027,76.6794 18.362,37.856301 30.9966,59.865001 35.8599,62.465701 14.1635,7.5742 52.2038,1.6743 97.78297,-15.1657 23.12901,-8.5455 43.40256,-14.7036 45.0522,-13.6848 1.64971,1.0187 5.97145,7.6733 9.60386,14.7878 8.26397,16.186 22.46358,28.2411 49.07268,41.6613 26.07774,13.1522 41.97547,25.1721 44.71969,33.8115 1.59012,5.0062 -2.31528,11.4001 -15.4197,25.2452 -19.90993,21.03534 -41.32613,63.34614 -47.55024,93.94254 -3.2739,16.0934 -3.02798,23.0636 1.42669,40.4383 2.96038,11.5462 4.4639,21.912 3.34131,23.0351 -2.73864,2.7397 -356.79106,3.4672 -373.17456,0.7668 z" style="opacity: 0.96; fill: rgb(107, 109, 110); fill-opacity: 1; stroke-width: 0.5; stroke-miterlimit: 4; stroke-dasharray: none; vector-effect: non-scaling-stroke; stroke: rgb(10, 10, 10);" class="mapsvg-region mapsvg-disabled mapsvg-disabled"></path>
    <path style="fill: rgb(107, 109, 110); fill-rule: evenodd; stroke: rgb(10, 10, 10); stroke-width: 1px; stroke-linecap: butt; stroke-linejoin: miter; stroke-opacity: 1; vector-effect: non-scaling-stroke;" d="M -310.87344,-333.41577 204.75638,402.80546 Z" id="path4886" connector-curvature="0" nodetypes="ccc" class="mapsvg-region mapsvg-disabled"></path>
    <path style="fill: rgb(107, 109, 110); fill-rule: evenodd; stroke: rgb(10, 10, 10); stroke-width: 1px; stroke-linecap: butt; stroke-linejoin: miter; stroke-opacity: 1; vector-effect: non-scaling-stroke;" d="M -310.22274,-413.58974 205.04087,-986.61637 Z" id="path4888" connector-curvature="0" nodetypes="ccc" class="mapsvg-region mapsvg-disabled"></path>
    <path style="fill: rgb(107, 109, 110); fill-rule: evenodd; stroke: rgb(10, 10, 10); stroke-width: 1; stroke-linecap: butt; stroke-linejoin: miter; stroke-miterlimit: 4; stroke-dasharray: 4, 4; stroke-dashoffset: 5; stroke-opacity: 1; vector-effect: non-scaling-stroke;" d="m -364.57354,-413.75926 0,80 54.2858,0 0,-80 z" id="path4890" connector-curvature="0" class="mapsvg-region mapsvg-disabled"></path>
  </g>
</svg>