<?xml version="1.0" encoding="UTF-8" standalone="no" ?>
    <!DOCTYPE svg PUBLIC "-//W3C//DTD SVG 1.1//EN" "http://www.w3.org/Graphics/SVG/1.1/DTD/svg11.dtd">
    <svg version="1.1" xmlns="http://www.w3.org/2000/svg" xmlns:xlink="http://www.w3.org/1999/xlink" width="1301" height="605" xml:space="preserve">
        <desc>JavaScript chart by amCharts 3.20.17</desc>
        <desc>This map was created using Pixel Map Generator by amCharts and is licensed under the Creative Commons Attribution 4.0 International License. You may use this map the way you see fit as long as proper attribution to the name of amCharts is given in the form of link to http://pixelmap.amcharts.com/ To view a copy of this license, visit http://creativecommons.org/licenses/by/4.0/ If you would like to use this map without any attribution, you can acquire a commercial license for the JavaScript Maps - a tool that was used to produce this map. To do so, visit amCharts Online Store: http://www.amcharts.com/online-store/</desc>
        <g>
            <path cs="100,100" d="M0.5,0.5 L1300.5,0.5 L1300.5,604.5 L0.5,604.5 Z" fill="#505050" stroke="#000000" fill-opacity="1" stroke-width="1" stroke-opacity="1" class="amcharts-bg"></path>
        </g>
        <g>
            <g transform="translate(454.84900914802574,386.7783221551672) scale(0.82932)">
                <g transform="translate(0,0) scale(0.8682050824794478)">
                    <path cs="100,100" d=" M 197.37 -283.74 L 187.33 -292.98 L 187.33 -292.98 L 190 -294.45 L 190 -294.45 L 188.54 -297.84 L 195.57 -304.18 L 181.28 -319.18 L 188.07 -324.66 L 178.86 -330.58 L 181.52 -338.39 L 180.07 -341.77 L 176.44 -339.01 L 173.05 -340.07 L 172.81 -348.09 L 165.78 -353.15 L 160.2 -345.77 L 158.52 -348.09 L 160.7 -354.63 L 158.77 -357.58 L 169.41 -364.33 L 160.7 -363.91 L 164.33 -372.33 L 156.57 -370.85 L 155.85 -373.58 L 165.78 -375.71 L 163.6 -381.59 L 166.03 -384.12 L 166.03 -384.12 L 171.59 -384.12 L 171.59 -384.12 L 174.26 -389.19 L 171.11 -391.7 L 174.74 -395.91 L 198 -397.59 L 203.56 -386.85 L 207.68 -384.76 L 206.71 -381.4 L 200.17 -378.65 L 200.17 -375.06 L 195.81 -370.64 L 199.2 -368.12 L 205.74 -367.91 L 213.26 -371.27 L 221.24 -369.81 L 219.54 -377.81 L 221.47 -381.8 L 226.82 -385.81 L 233.58 -383.7 L 234.06 -391.49 L 239.57 -398.64 L 239.57 -398.64 L 242.36 -398.96 L 246.26 -391.07 L 254.06 -392.02 L 255.26 -397.14 L 260.39 -395.37 L 257.74 -389.22 L 258.01 -376.32 L 252.9 -369.21 L 253.74 -364.44 L 256.7 -365.29 L 261.57 -356.92 L 253.29 -351.19 L 253.58 -348.01 L 261.67 -347.98 L 266.1 -345.54 L 267.88 -342.56 L 265.59 -340.37 L 272.96 -338.02 L 274.37 -333.24 L 285.16 -324 L 285.16 -324 L 259.11 -314.07 L 264.44 -311.09 L 263.47 -309.2 L 253.54 -304.77 L 247.97 -297.58 L 238.54 -306.03 L 228.36 -309 L 224.73 -303.71 L 216.25 -303.51 L 210.92 -296.74 L 211.41 -289.97 L 207.77 -285.53 L 207.77 -285.53 L 203.17 -285.32 L 203.17 -285.32 L 197.84 -284.26 L 197.84 -284.26 Z " fill="#0d1111" fill-opacity="1" stroke="#505050" stroke-opacity="1" stroke-width="1.3888506202638435" class="amcharts-map-area amcharts-map-area-RS-02" role="menuitem" aria-label="Srednjebanatski okrug  "></path>
                    <path cs="100,100" d=" M 169.56 -384.12 L 167.37 -388.46 L 137.35 -393.93 L 137.35 -393.93 L 134.44 -394.77 L 134.44 -394.77 L 126.7 -411.18 L 130.09 -414.55 L 127.91 -420.23 L 129.11 -428.63 L 140.01 -452.58 L 138.51 -456.96 L 138.51 -456.96 L 144.84 -460.38 L 152.97 -460.41 L 162.05 -455.52 L 166.53 -460.66 L 171.79 -455.42 L 177.15 -457.72 L 183.59 -451.85 L 188.42 -452.45 L 188.99 -447.68 L 198.02 -439.72 L 198.57 -431.75 L 206.25 -426.16 L 211.65 -426.97 L 216.32 -424.21 L 220.53 -414.26 L 227.48 -417.2 L 229.06 -410.54 L 239.31 -404.05 L 239.57 -398.64 L 239.57 -398.64 L 234.06 -391.49 L 233.58 -383.7 L 226.82 -385.81 L 221.47 -381.8 L 219.54 -377.81 L 221.24 -369.81 L 213.26 -371.27 L 205.74 -367.91 L 199.2 -368.12 L 195.81 -370.64 L 200.17 -375.06 L 200.17 -378.65 L 206.71 -381.4 L 207.68 -384.76 L 203.56 -386.85 L 198 -397.59 L 174.74 -395.91 L 171.11 -391.7 L 174.26 -389.19 L 171.59 -384.12 L 171.59 -384.12 Z " fill="#0d1111" fill-opacity="1" stroke="#505050" stroke-opacity="1" stroke-width="1.3888506202638435" class="amcharts-map-area amcharts-map-area-RS-03" role="menuitem" aria-label="Severnobanatski okrug  "></path>
                    <path cs="100,100" d=" M 27.6 -349.7 L 26.91 -347.71 L 32.01 -347.92 L 39.02 -343.71 L 37.34 -342.01 L 44.37 -343.07 L 48.47 -340.12 L 56.71 -340.12 L 59.37 -343.49 L 63.01 -339.68 L 66.15 -341.59 L 72.69 -340.33 L 74.14 -343.07 L 70.04 -347.08 L 82.14 -358.46 L 88.43 -355.51 L 91.34 -356.57 L 92.79 -362.88 L 97.64 -362.46 L 95.21 -367.94 L 99.13 -374.31 L 99.13 -374.31 L 102.49 -374.13 L 102.49 -374.13 L 116.77 -368.88 L 124.27 -381.09 L 122.09 -385.94 L 136.44 -394.19 L 136.44 -394.19 L 137.35 -393.93 L 137.35 -393.93 L 167.37 -388.46 L 169.56 -384.12 L 169.56 -384.12 L 166.03 -384.12 L 166.03 -384.12 L 163.6 -381.59 L 165.78 -375.71 L 155.85 -373.58 L 156.57 -370.85 L 164.33 -372.33 L 160.7 -363.91 L 169.41 -364.33 L 158.77 -357.58 L 160.7 -354.63 L 158.52 -348.09 L 160.2 -345.77 L 165.78 -353.15 L 172.81 -348.09 L 173.05 -340.07 L 176.44 -339.01 L 180.07 -341.77 L 181.52 -338.39 L 178.86 -330.58 L 188.07 -324.66 L 181.28 -319.18 L 195.57 -304.18 L 188.54 -297.84 L 190 -294.45 L 190 -294.45 L 187.74 -293.2 L 187.74 -293.2 L 181.52 -299.74 L 171.85 -299.52 L 168.45 -302.27 L 162.87 -297.2 L 159.24 -297.62 L 159.97 -304.39 L 156.82 -304.8 L 149.79 -296.14 L 130.67 -293.83 L 122.92 -295.51 L 101.85 -294.03 L 89.74 -298.05 L 82.23 -293.83 L 75.49 -298.96 L 75.49 -298.96 L 75.82 -308.72 L 56.64 -310.5 L 38.31 -318.91 L 35.54 -325.32 L 27.21 -326.66 L 21.48 -330.94 L 27.06 -338.99 L 22.62 -343.54 L 23.28 -349.22 Z " fill="#0d1111" fill-opacity="1" stroke="#505050" stroke-opacity="1" stroke-width="1.3888506202638435" class="amcharts-map-area amcharts-map-area-RS-06" role="menuitem" aria-label="Južnobački okrug  "></path>
                    <path cs="100,100" d=" M 282.63 178.88 L 276.11 180.73 L 270.78 185.84 L 257.45 188.73 L 252.11 196.58 L 255.73 213.86 L 241.19 224.36 L 235.42 233.22 L 228.61 234.06 L 226.35 221.23 L 230.71 219.76 L 228.42 213.8 L 233.99 210 L 234.6 204.52 L 225.58 187.97 L 227.17 181.71 L 218.6 165.05 L 218.6 165.05 L 221 158.44 L 233.86 149.84 L 222.06 143.49 L 221.35 124.1 L 227.78 119.02 L 237.43 119.64 L 241.71 116.47 L 247.79 122.82 L 256.73 120.59 L 256.73 120.59 L 262.08 120.59 L 262.08 120.59 L 272.8 125.69 L 273.87 129.82 L 280.3 135.22 L 275.3 141.9 L 279.95 143.8 L 282.08 156.53 L 268.15 166.71 L 267.78 169.26 L 281.73 174.03 Z " fill="#0d1111" fill-opacity="1" stroke="#505050" stroke-opacity="1" stroke-width="1.3888506202638435" class="amcharts-map-area amcharts-map-area-RS-27" role="menuitem" aria-label="Prizrenski okrug  "></path>
                    <path cs="100,100" d=" M 282.18 26.04 L 287.8 40.05 L 294.6 45.42 L 293.88 67.93 L 298.87 70.15 L 300.31 74.59 L 292.81 78.39 L 294.6 82.51 L 291.73 88.54 L 279.95 94.24 L 276.37 89.17 L 269.94 93.62 L 267.08 90.76 L 262.08 92.35 L 261.35 95.83 L 255.29 97.74 L 253.52 106.18 L 253.52 106.18 L 252.07 105.67 L 252.07 105.67 L 248.14 102.5 L 245.64 94.88 L 239.21 96.47 L 236 91.07 L 235.28 88.21 L 238.5 87.59 L 236.35 80.6 L 239.21 78.39 L 239.57 71.41 L 234.57 63.49 L 229.21 61.58 L 223.25 63.97 L 223.25 63.97 L 223.48 63.5 L 223.48 63.5 L 218.58 55.91 L 219.83 51.33 L 229.6 45.25 L 234.61 43.65 L 238.35 45.31 L 238.3 43.23 L 246.3 41.04 L 244.18 27.89 L 240.84 27.22 L 241.1 20.77 L 234.95 13.34 L 260.64 2.4 L 260.64 2.4 L 261.29 2.4 L 261.29 2.4 L 267.27 4.39 L 274.15 14.81 L 273.87 16.73 L 267.05 15.57 L 266.6 20.32 L 276.8 25.74 L 276.8 25.74 L 277.62 26.06 L 277.62 26.06 L 281.73 26.18 L 281.73 26.18 Z " fill="#0d1111" fill-opacity="1" stroke="#505050" stroke-opacity="1" stroke-width="1.3888506202638435" class="amcharts-map-area amcharts-map-area-RS-28" role="menuitem" aria-label="Kosovsko-Mitrovački okrug  "></path>
                    <path cs="100,100" d=" M 456.52 -15.48 L 456.52 -12.71 L 456.52 -12.71 L 454.86 -8.57 L 447.41 -6.87 L 431.96 -11.27 L 432.23 -3.7 L 435.53 1.69 L 430.85 4.38 L 428.36 10.23 L 442.17 19.77 L 449.35 20.51 L 449.63 27.59 L 443.55 29.41 L 443.55 29.41 L 443.55 29.15 L 443.55 29.15 L 439.68 33.55 L 431.4 32.33 L 431.13 28.89 L 414.54 18.37 L 410.14 18.14 L 402.68 22.53 L 400.19 17.4 L 389.07 20.22 L 389.07 20.22 L 388.55 19 L 388.55 19 L 384.62 5.08 L 376.05 2.55 L 374.26 9.19 L 367.12 5.71 L 365.33 2.87 L 367.12 -1.87 L 362.83 -2.5 L 358.54 -7.56 L 361.77 -13.88 L 348.54 -13.25 L 348.54 -13.25 L 347.12 -16.03 L 347.12 -16.03 L 358.9 -25.24 L 354.61 -32.81 L 358.17 -41.66 L 354.61 -43.55 L 353.18 -53.33 L 349.25 -54.59 L 345.33 -61.21 L 351.41 -69.72 L 348.54 -74.44 L 348.54 -74.44 L 347.5 -76.96 L 347.5 -76.96 L 355.33 -83.65 L 367.47 -84.27 L 367.47 -84.27 L 369.6 -85.83 L 369.6 -85.83 L 374.79 -78.3 L 372.58 -74.89 L 375.34 -70.51 L 373.96 -63.7 L 381.96 -52 L 391.91 -48.35 L 394.67 -50.05 L 401.85 -38.84 L 401.85 -38.84 L 405.17 -40.54 L 411.8 -38.84 L 411.8 -38.84 L 406.54 -48.1 L 409.31 -48.82 L 417.88 -42.74 L 418.97 -36.4 L 429.74 -33.71 L 431.13 -30.55 L 440.78 -32.73 L 447.41 -27.13 L 452.37 -30.29 L 457.91 -23.22 Z " fill="#0d1111" fill-opacity="1" stroke="#505050" stroke-opacity="1" stroke-width="1.3888506202638435" class="amcharts-map-area amcharts-map-area-RS-20" role="menuitem" aria-label="Nišavski okrug  " cursor="pointer"></path>
                    <path cs="100,100" d=" M 390.34 -126.12 L 392.74 -129.13 L 398.26 -128.4 L 400.46 -131.07 L 408.76 -132.53 L 408.48 -139.58 L 411.52 -144.66 L 407.93 -153.89 L 404.06 -150 L 401.02 -151.7 L 400.19 -162.13 L 388.32 -166.02 L 390.25 -167.72 L 386.94 -173.05 L 392.19 -180.32 L 396.89 -180.32 L 398.26 -183.7 L 404.61 -186.14 L 405.44 -199.71 L 408.76 -199.95 L 414.08 -208.44 L 414.08 -208.44 L 423.3 -191.12 L 430.72 -187.14 L 436.17 -187.71 L 453.01 -217.14 L 473.83 -226.07 L 487.9 -212.77 L 493.94 -209.81 L 500.51 -210.24 L 510.66 -201.92 L 511.79 -197.77 L 503.46 -193.97 L 494.46 -199.21 L 488.95 -199.29 L 484.16 -188.42 L 472.37 -186.71 L 485.49 -160.88 L 498.65 -157.99 L 501.87 -154.85 L 499.96 -145.31 L 496.58 -145.61 L 492.57 -138.79 L 494.48 -137.57 L 492.18 -129.54 L 493.54 -122.64 L 482.25 -120.01 L 482.25 -120.01 L 472.53 -120.27 L 472.28 -126.34 L 477.23 -129.25 L 466.47 -138.23 L 451.83 -138.49 L 444.93 -143.33 L 439.95 -136.05 L 446.31 -119.28 L 439.41 -112.74 L 436.09 -102.04 L 427.26 -96.92 L 419.25 -109.57 L 414.28 -106.65 L 404.89 -110.29 L 401.29 -116.12 L 385.02 -115.25 L 385.02 -115.25 L 385.68 -117.01 L 385.68 -117.01 L 390.34 -126.12 L 390.34 -126.12 Z " fill="#0d1111" fill-opacity="1" stroke="#505050" stroke-opacity="1" stroke-width="1.3888506202638435" class="amcharts-map-area amcharts-map-area-RS-14" role="menuitem" aria-label="Borski okrug  " cursor="pointer"></path>
                    <path cs="100,100" d=" M 482.25 -120.01 L 481.58 -115.74 L 466.08 -113.16 L 465.81 -102.95 L 463.29 -100.88 L 459.31 -82.5 L 464.94 -74.42 L 465.83 -64.69 L 476.64 -55.6 L 476.35 -43.62 L 482.41 -29 L 487.81 -27.76 L 490.72 -23.56 L 498.57 -22.16 L 500.01 -17.96 L 500.01 -17.96 L 487.73 -8.08 L 481.93 -8.82 L 478.62 -14.91 L 470.62 -11.02 L 456.52 -16.14 L 456.52 -16.14 L 456.52 -15.48 L 456.52 -15.48 L 457.91 -23.22 L 452.37 -30.29 L 447.41 -27.13 L 440.78 -32.73 L 431.13 -30.55 L 429.74 -33.71 L 418.97 -36.4 L 417.88 -42.74 L 409.31 -48.82 L 406.54 -48.1 L 411.8 -38.84 L 411.8 -38.84 L 407.37 -40.54 L 401.85 -38.84 L 401.85 -38.84 L 394.67 -50.05 L 391.91 -48.35 L 381.96 -52 L 373.96 -63.7 L 375.34 -70.51 L 372.58 -74.89 L 374.79 -78.3 L 369.6 -85.83 L 369.6 -85.83 L 369.62 -85.85 L 369.62 -85.85 L 374.26 -90.25 L 372.47 -99.06 L 377.48 -99.38 L 383.55 -111.35 L 383.55 -111.35 L 385.02 -115.25 L 385.02 -115.25 L 401.29 -116.12 L 404.89 -110.29 L 414.28 -106.65 L 419.25 -109.57 L 427.26 -96.92 L 436.09 -102.04 L 439.41 -112.74 L 446.31 -119.28 L 439.95 -136.05 L 444.93 -143.33 L 451.83 -138.49 L 466.47 -138.23 L 477.23 -129.25 L 472.28 -126.34 L 472.53 -120.27 Z " fill="#0d1111" fill-opacity="1" stroke="#505050" stroke-opacity="1" stroke-width="1.3888506202638435" class="amcharts-map-area amcharts-map-area-RS-15" role="menuitem" aria-label="Zaječarski okrug  "></path>
                    <path cs="100,100" d=" M 299.22 -161.93 L 299.65 -165.69 L 306.43 -167.61 L 305.46 -171.43 L 300.14 -173.13 L 299.65 -176.75 L 304.98 -182.05 L 305.46 -186.52 L 300.38 -196.08 L 301.6 -205 L 292.62 -207.98 L 291.9 -213.71 L 288.75 -216.24 L 288.57 -226.52 L 288.57 -226.52 L 288.57 -226.52 L 288.57 -226.52 L 302.75 -229.8 L 311.5 -236.81 L 329.41 -243.44 L 329.41 -243.44 L 335.14 -236.02 L 359.04 -233.24 L 365.16 -217.75 L 402.82 -215.34 L 412.04 -213.02 L 414.08 -208.44 L 414.08 -208.44 L 408.76 -199.95 L 405.44 -199.71 L 404.61 -186.14 L 398.26 -183.7 L 396.89 -180.32 L 392.19 -180.32 L 386.94 -173.05 L 390.25 -167.72 L 388.32 -166.02 L 400.19 -162.13 L 401.02 -151.7 L 404.06 -150 L 407.93 -153.89 L 411.52 -144.66 L 408.48 -139.58 L 408.76 -132.53 L 400.46 -131.07 L 398.26 -128.4 L 392.74 -129.13 L 390.34 -126.12 L 390.34 -126.12 L 388.19 -129.57 L 388.19 -129.57 L 371.4 -132.09 L 367.12 -135.54 L 355.33 -136.17 L 354.61 -140.56 L 348.54 -145.28 L 336.39 -147.17 L 333.18 -144.96 L 329.24 -147.17 L 332.47 -150.31 L 322.11 -160.66 L 318.53 -155.01 L 313.87 -155.63 L 307.81 -162.55 Z " fill="#0d1111" fill-opacity="1" stroke="#505050" stroke-opacity="1" stroke-width="1.3888506202638435" class="amcharts-map-area amcharts-map-area-RS-11" role="menuitem" aria-label="Braničevski okrug  " cursor="pointer"></path>
                    <path cs="100,100" d=" M 99.13 -374.31 L 95.21 -367.94 L 97.64 -362.46 L 92.79 -362.88 L 91.34 -356.57 L 88.43 -355.51 L 82.14 -358.46 L 70.04 -347.08 L 74.14 -343.07 L 72.69 -340.33 L 66.15 -341.59 L 63.01 -339.68 L 59.37 -343.49 L 56.71 -340.12 L 48.47 -340.12 L 44.37 -343.07 L 37.34 -342.01 L 39.02 -343.71 L 32.01 -347.92 L 26.91 -347.71 L 27.6 -349.7 L 27.6 -349.7 L 35.07 -349.55 L 37.14 -353.87 L 28.43 -357.23 L 26.88 -360.78 L 17.62 -357.21 L 10.22 -362.69 L 13.11 -367.86 L 11.63 -370.24 L 16.24 -371.46 L 19.84 -380.03 L 12.36 -384.71 L 9.35 -395.8 L 4.9 -400.17 L 5.67 -409.01 L 0 -417.5 L 6.85 -417.6 L 11.95 -421.6 L 25.13 -419.84 L 23.45 -423.63 L 25.83 -426.2 L 34.43 -426.34 L 32.65 -432.08 L 37.91 -438.41 L 41.73 -437.83 L 43.29 -431.55 L 62.85 -430.37 L 62.85 -430.37 L 67.84 -425.9 L 67.61 -422.11 L 72.21 -423.37 L 66.64 -417.92 L 70.27 -405.72 L 87.23 -388.25 L 90.13 -392.04 L 98.12 -388.46 L 95.71 -384.67 L 103.92 -377.93 L 98.12 -374.36 L 98.12 -374.36 Z " fill="#0d1111" fill-opacity="1" stroke="#505050" stroke-opacity="1" stroke-width="1.3888506202638435" class="amcharts-map-area amcharts-map-area-RS-05" role="menuitem" aria-label="Zapadnobački okrug  "></path>
                    <path cs="100,100" d=" M 152.81 -203.52 L 152.7 -202.54 L 152.7 -202.54 L 151.25 -199.77 L 159.97 -194.26 L 166.5 -198.93 L 173.53 -192.76 L 179.09 -201.68 L 181.04 -193.62 L 185.87 -190.22 L 183.94 -184.26 L 186.12 -182.78 L 180.31 -172.37 L 182.49 -167.91 L 178.61 -165.99 L 190.48 -153.65 L 199.69 -156.2 L 200.41 -159.18 L 206.31 -162.5 L 206.31 -162.5 L 206.22 -161.72 L 206.22 -161.72 L 209.13 -161.52 L 210.51 -153.11 L 210.51 -153.11 L 208.39 -150.02 L 208.39 -150.02 L 191.94 -135.13 L 178.13 -134.05 L 173.05 -130.01 L 166.98 -129.37 L 166.98 -129.37 L 165.17 -128.89 L 165.17 -128.89 L 156.82 -130.87 L 149.31 -128.3 L 143.26 -134.91 L 139.4 -135.76 L 133.33 -131.72 L 127.27 -133.85 L 132.6 -126.18 L 127.27 -124.25 L 123.4 -131.07 L 109.11 -138.53 L 109.11 -138.53 L 100.64 -142.37 L 98.22 -150.02 L 80.3 -156.41 L 86.82 -163.43 L 91.19 -164.07 L 91.44 -166.62 L 85.86 -171.3 L 90.47 -172.57 L 91.92 -178.1 L 88.54 -182.78 L 97.73 -185.33 L 105.97 -180.86 L 114.93 -184.05 L 127.27 -176.83 L 134.05 -175.77 L 138.16 -188.52 L 134.53 -198.07 L 140.83 -203.38 L 144.23 -201.47 Z " fill="#0d1111" fill-opacity="1" stroke="#505050" stroke-opacity="1" stroke-width="1.3888506202638435" class="amcharts-map-area amcharts-map-area-RS-09" role="menuitem" aria-label="Kolubarski okrug  " cursor="pointer"></path>
                    <path cs="100,100" d=" M 136.44 -394.19 L 122.09 -385.94 L 124.27 -381.09 L 116.77 -368.88 L 102.49 -374.13 L 102.49 -374.13 L 98.12 -374.36 L 98.12 -374.36 L 103.92 -377.93 L 95.71 -384.67 L 98.12 -388.46 L 90.13 -392.04 L 87.23 -388.25 L 70.27 -405.72 L 66.64 -417.92 L 72.21 -423.37 L 67.61 -422.11 L 67.84 -425.9 L 62.85 -430.37 L 62.85 -430.37 L 60.8 -434.49 L 71.36 -440.32 L 73.5 -437.83 L 77.94 -439.49 L 84.41 -447.44 L 92.14 -451.3 L 89.53 -455.32 L 97.44 -460.84 L 106.15 -459.54 L 109.95 -462.78 L 114.3 -462.34 L 130.01 -452.72 L 138.51 -456.96 L 138.51 -456.96 L 140.01 -452.58 L 129.11 -428.63 L 127.91 -420.23 L 130.09 -414.55 L 126.7 -411.18 L 134.44 -394.77 L 134.44 -394.77 Z " fill="#0d1111" fill-opacity="1" stroke="#505050" stroke-opacity="1" stroke-width="1.3888506202638435" class="amcharts-map-area amcharts-map-area-RS-01" role="menuitem" aria-label=" Severnobački okrug  "></path>
                    <path cs="100,100" d=" M 238.04 -91.77 L 237.07 -92.15 L 237.07 -92.15 L 227.78 -86.79 L 228.14 -81.44 L 221.35 -78.6 L 215.99 -72.62 L 210.27 -72.31 L 214.56 -61.27 L 212.06 -59.06 L 207.77 -60.64 L 204.56 -59.06 L 203.13 -55.91 L 206.7 -52.76 L 203.84 -46.13 L 196.7 -40.46 L 199.91 -36.98 L 205.27 -36.04 L 211.7 -29.1 L 208.83 -19.63 L 211.7 -17.41 L 211.34 -9.19 L 206.7 -7.62 L 201.7 1.24 L 194.2 -2.88 L 194.2 -2.88 L 194.02 -2.88 L 194.02 -2.88 L 191.94 -6.55 L 177.89 -3.13 L 169.41 -6.11 L 170.38 -10.62 L 158.03 -30.09 L 150.77 -36.95 L 146.41 -37.8 L 148.35 -45.29 L 154.64 -44.22 L 162.63 -52.98 L 169.66 -54.68 L 170.14 -57.68 L 181.04 -60.04 L 171.35 -79.69 L 173.05 -86.08 L 169.41 -88.01 L 167.72 -97.18 L 169.41 -105.09 L 162.87 -112.12 L 166.27 -118.08 L 163.6 -122.56 L 164.57 -128.73 L 164.57 -128.73 L 166.98 -129.37 L 166.98 -129.37 L 173.05 -130.01 L 178.13 -134.05 L 191.94 -135.13 L 208.39 -150.02 L 208.39 -150.02 L 210.58 -153.22 L 210.58 -153.22 L 213.26 -145.12 L 223.42 -137.47 L 226.08 -129.16 L 238.93 -118.29 L 225.11 -108.91 Z " fill="#0d1111" fill-opacity="1" stroke="#505050" stroke-opacity="1" stroke-width="1.3888506202638435" class="amcharts-map-area amcharts-map-area-RS-17" role="menuitem" aria-label="Moravički okrug  " cursor="pointer"></path>
                    <path cs="100,100" d=" M 300.2 -144.14 L 297.71 -144.41 L 298.2 -147.82 L 292.62 -146.96 L 283.43 -153.35 L 281.73 -157.39 L 272.04 -155.9 L 260.65 -158.68 L 260.65 -163.77 L 260.65 -163.77 L 254.37 -163.99 L 254.12 -168.45 L 254.12 -168.45 L 257.27 -169.94 L 250.49 -175.69 L 254.37 -183.12 L 262.12 -182.05 L 264.78 -183.96 L 258.74 -195.22 L 255.09 -195.22 L 250.01 -200.74 L 263.32 -204.78 L 257.76 -208.82 L 258.05 -216.89 L 258.05 -216.89 L 259.45 -216.82 L 259.45 -216.82 L 273.2 -219.07 L 282.34 -226.25 L 286.56 -226.78 L 286.56 -226.78 L 288.57 -226.52 L 288.57 -226.52 L 288.75 -216.24 L 291.9 -213.71 L 292.62 -207.98 L 301.6 -205 L 300.38 -196.08 L 305.46 -186.52 L 304.98 -182.05 L 299.65 -176.75 L 300.14 -173.13 L 305.46 -171.43 L 306.43 -167.61 L 299.65 -165.69 L 299.22 -161.93 L 299.22 -161.93 L 298.16 -160.02 L 304.59 -152.19 L 300.66 -145.28 L 300.66 -145.28 Z " fill="#0d1111" fill-opacity="1" stroke="#505050" stroke-opacity="1" stroke-width="1.3888506202638435" class="amcharts-map-area amcharts-map-area-RS-10" role="menuitem" aria-label="Podunavski okrug  " cursor="pointer"></path>
                    <path cs="100,100" d=" M 187.74 -293.2 L 187.33 -292.98 L 187.33 -292.98 L 197.37 -283.74 L 197.37 -283.74 L 196.16 -282.35 L 196.16 -282.35 L 200.14 -279.52 L 199.75 -273.97 L 191.77 -269.37 L 192.17 -263.53 L 175.52 -255.01 L 173.57 -248.69 L 176.57 -243.35 L 167.75 -240.46 L 169.08 -235.2 L 162.98 -228.27 L 168.8 -224.34 L 156.51 -219.21 L 149.29 -212.62 L 149.29 -212.62 L 144.45 -213.67 L 143.83 -216.06 L 150.44 -218.03 L 153.63 -222.4 L 142.87 -222.05 L 127.55 -231.35 L 118.38 -231.89 L 115.71 -234.28 L 114.66 -242.33 L 122.71 -256.54 L 115.52 -259.86 L 94.07 -255.68 L 88.29 -259.19 L 84.45 -255.55 L 76.15 -258.85 L 66.66 -258.98 L 69.3 -253.86 L 57.52 -257.74 L 51.76 -255.12 L 47.4 -259.14 L 33.38 -249.89 L 27.28 -248.64 L 25.61 -256.17 L 34.4 -257.19 L 44.09 -264.18 L 42.54 -268.41 L 31.02 -267.86 L 36.39 -270.78 L 38.98 -279.48 L 35.95 -291.97 L 42.93 -292.16 L 48.19 -298.91 L 47 -303.6 L 58.34 -298.88 L 61.3 -298.88 L 62.26 -303.2 L 65.32 -303.44 L 70.22 -298.43 L 75.49 -298.96 L 75.49 -298.96 L 82.23 -293.83 L 89.74 -298.05 L 101.85 -294.03 L 122.92 -295.51 L 130.67 -293.83 L 149.79 -296.14 L 156.82 -304.8 L 159.97 -304.39 L 159.24 -297.62 L 162.87 -297.2 L 168.45 -302.27 L 171.85 -299.52 L 181.52 -299.74 Z " fill="#0d1111" fill-opacity="1" stroke="#505050" stroke-opacity="1" stroke-width="1.3888506202638435" class="amcharts-map-area amcharts-map-area-RS-07" role="menuitem" aria-label="Sremski okrug  "></path>
                    <path cs="100,100" d=" M 152.96 -203.52 L 144.37 -201.47 L 140.99 -203.38 L 134.69 -198.07 L 138.33 -188.52 L 134.21 -175.77 L 127.43 -176.83 L 115.07 -184.05 L 106.12 -180.86 L 97.88 -185.33 L 88.68 -182.78 L 92.08 -178.1 L 90.62 -172.57 L 86.02 -171.3 L 91.6 -166.62 L 91.35 -164.07 L 86.99 -163.43 L 80.45 -156.41 L 98.38 -150.02 L 106.84 -134.7 L 105.88 -131.93 L 101.76 -134.27 L 89.69 -126.85 L 85.2 -131.82 L 85.97 -136.25 L 81.95 -133.66 L 77.2 -139.36 L 70.9 -141.69 L 66.48 -155.41 L 60.57 -156.31 L 55.11 -154.03 L 51.47 -158.63 L 45.86 -157.65 L 38.34 -168.7 L 38.38 -175.42 L 43.33 -178.97 L 39.61 -192.3 L 40.9 -195.62 L 46.65 -195.96 L 49.73 -200.23 L 49.18 -205.29 L 53.35 -207.07 L 60.29 -221.6 L 64.84 -223.69 L 63.4 -229.55 L 66.73 -230.36 L 63.53 -234.63 L 67.05 -235.94 L 62.77 -237.63 L 65.47 -239.06 L 65.72 -243.22 L 71.28 -245.8 L 69.94 -248.05 L 74.38 -249.95 L 66.82 -258.98 L 76.31 -258.85 L 84.59 -255.55 L 88.44 -259.19 L 94.21 -255.68 L 103.86 -256.17 L 110.94 -260.03 L 122.14 -257.61 L 114.81 -242.33 L 115.52 -234.79 L 118.54 -231.89 L 127.69 -231.35 L 143.03 -222.05 L 153.77 -222.4 L 153.92 -220.29 L 143.82 -215.17 L 149.24 -212.58 Z " fill="#0d1111" fill-opacity="1" stroke="#505050" stroke-opacity="1" stroke-width="1.3888506202638435" class="amcharts-map-area amcharts-map-area-RS-08" role="menuitem" aria-label="Mačvanski okrug  " cursor="pointer"></path>
                    <path cs="100,100" d=" M 206.31 -162.5 L 200.41 -159.18 L 199.69 -156.2 L 190.48 -153.65 L 178.61 -165.99 L 182.49 -167.91 L 180.31 -172.37 L 186.12 -182.78 L 183.94 -184.26 L 185.87 -190.22 L 181.04 -193.62 L 179.09 -201.68 L 173.53 -192.76 L 166.5 -198.93 L 159.97 -194.26 L 151.25 -199.77 L 152.7 -202.54 L 152.7 -202.54 L 149.29 -212.62 L 149.29 -212.62 L 156.51 -219.21 L 168.8 -224.34 L 162.98 -228.27 L 169.08 -235.2 L 167.75 -240.46 L 176.57 -243.35 L 173.57 -248.69 L 175.52 -255.01 L 192.17 -263.53 L 191.77 -269.37 L 199.75 -273.97 L 200.14 -279.52 L 196.16 -282.35 L 196.16 -282.35 L 197.84 -284.26 L 197.84 -284.26 L 203.17 -285.32 L 203.17 -285.32 L 206.99 -285.49 L 206.99 -285.49 L 207.28 -279.63 L 215.04 -270.16 L 221.62 -267.54 L 224.73 -259.19 L 233.4 -258.44 L 237.51 -244.15 L 234.76 -237.21 L 236.4 -232.06 L 248.58 -220.22 L 257.54 -216.9 L 257.54 -216.9 L 258.05 -216.89 L 258.05 -216.89 L 257.76 -208.82 L 263.32 -204.78 L 250.01 -200.74 L 255.09 -195.22 L 258.74 -195.22 L 264.78 -183.96 L 262.12 -182.05 L 254.37 -183.12 L 250.49 -175.69 L 257.27 -169.94 L 254.12 -168.45 L 254.12 -168.45 L 254.35 -164.24 L 254.35 -164.24 L 247.88 -168.97 L 238.19 -168.12 L 233.1 -174.92 L 224.63 -171.72 L 222.69 -179.16 L 209.86 -182.78 L 207.43 -178.1 L 212.28 -171.94 L 206.71 -165.77 L 206.71 -165.77 Z " fill="#0d1111" fill-opacity="1" stroke="#505050" stroke-opacity="1" stroke-width="1.3888506202638435" class="amcharts-map-area amcharts-map-area-RS-00" role="menuitem" aria-label="Beograd  " cursor="pointer"></path>
                    <path cs="100,100" d=" M 347.5 -76.96 L 347.12 -77.91 L 347.12 -77.91 L 342.82 -73.82 L 336.76 -72.56 L 331.03 -76.66 L 335.32 -78.54 L 331.75 -81.69 L 319.95 -79.17 L 320.3 -91.13 L 317.1 -88.61 L 316.38 -79.48 L 309.95 -75.4 L 303.52 -76.33 L 304.95 -70.67 L 301.03 -69.4 L 285.66 -73.19 L 282.8 -71.61 L 282.8 -71.61 L 279.21 -74.51 L 279.21 -74.51 L 274.23 -81.44 L 274.23 -81.44 L 273.55 -84.96 L 273.55 -84.96 L 290.3 -93.39 L 286.38 -94.34 L 285.3 -98.43 L 293.52 -105.99 L 288.87 -111.65 L 298.52 -115.11 L 295.66 -122.97 L 305.67 -133.97 L 298.87 -140.88 L 298.87 -140.88 L 300.66 -145.28 L 300.66 -145.28 L 304.59 -152.19 L 298.16 -160.02 L 299.22 -161.93 L 299.22 -161.93 L 307.81 -162.55 L 313.87 -155.63 L 318.53 -155.01 L 322.11 -160.66 L 332.47 -150.31 L 329.24 -147.17 L 333.18 -144.96 L 336.39 -147.17 L 348.54 -145.28 L 354.61 -140.56 L 355.33 -136.17 L 367.12 -135.54 L 371.4 -132.09 L 388.19 -129.57 L 388.19 -129.57 L 390.34 -126.12 L 390.34 -126.12 L 385.68 -117.01 L 385.68 -117.01 L 383.55 -111.35 L 383.55 -111.35 L 377.48 -99.38 L 372.47 -99.06 L 374.26 -90.25 L 369.62 -85.85 L 369.62 -85.85 L 367.47 -84.27 L 367.47 -84.27 L 355.33 -83.65 Z " fill="#0d1111" fill-opacity="1" stroke="#505050" stroke-opacity="1" stroke-width="1.3888506202638435" class="amcharts-map-area amcharts-map-area-RS-13" role="menuitem" aria-label="Pomoravski okrug  "></path>
                    <path cs="100,100" d=" M 254.35 -164.24 L 260.65 -163.77 L 260.65 -163.77 L 260.65 -158.68 L 272.04 -155.9 L 281.73 -157.39 L 283.43 -153.35 L 292.62 -146.96 L 298.2 -147.82 L 297.71 -144.41 L 300.2 -144.14 L 300.2 -144.14 L 298.87 -140.88 L 298.87 -140.88 L 305.67 -133.97 L 295.66 -122.97 L 298.52 -115.11 L 288.87 -111.65 L 293.52 -105.99 L 285.3 -98.43 L 286.38 -94.34 L 290.3 -93.39 L 273.55 -84.96 L 273.55 -84.96 L 273.15 -87.11 L 273.15 -87.11 L 259.93 -88.67 L 256.36 -87.41 L 255.65 -84.58 L 258.15 -83 L 248.14 -80.18 L 240.27 -90.88 L 240.27 -90.88 L 238.04 -91.77 L 238.04 -91.77 L 225.11 -108.91 L 238.93 -118.29 L 226.08 -129.16 L 223.42 -137.47 L 213.26 -145.12 L 210.58 -153.22 L 210.58 -153.22 L 210.51 -153.11 L 210.51 -153.11 L 209.13 -161.52 L 206.22 -161.72 L 206.22 -161.72 L 206.71 -165.77 L 206.71 -165.77 L 212.28 -171.94 L 207.43 -178.1 L 209.86 -182.78 L 222.69 -179.16 L 224.63 -171.72 L 233.1 -174.92 L 238.19 -168.12 L 247.88 -168.97 Z " fill="#0d1111" fill-opacity="1" stroke="#505050" stroke-opacity="1" stroke-width="1.3888506202638435" class="amcharts-map-area amcharts-map-area-RS-12" role="menuitem" aria-label="Šumadijski okrug  " cursor="pointer"></path>
                    <path cs="100,100" d=" M 165.17 -128.89 L 164.57 -128.73 L 164.57 -128.73 L 163.6 -122.56 L 166.27 -118.08 L 162.87 -112.12 L 169.41 -105.09 L 167.72 -97.18 L 169.41 -88.01 L 173.05 -86.08 L 171.35 -79.69 L 181.04 -60.04 L 170.14 -57.68 L 169.66 -54.68 L 162.63 -52.98 L 154.64 -44.22 L 148.35 -45.29 L 146.41 -37.8 L 150.77 -36.95 L 158.03 -30.09 L 170.38 -10.62 L 169.41 -6.11 L 177.89 -3.13 L 191.94 -6.55 L 194.02 -2.88 L 194.02 -2.88 L 190.62 -2.88 L 190.62 -2.88 L 188.84 0.91 L 190.62 5.65 L 184.55 8.82 L 192.77 14.5 L 193.83 18.62 L 178.83 21.78 L 177.05 27.47 L 172.04 27.8 L 169.54 30.96 L 163.78 42.28 L 163.78 42.28 L 148.95 25.32 L 144.5 27.89 L 133.61 27.36 L 127.44 25.01 L 123.73 15.77 L 120.8 18.84 L 108.13 13.6 L 104.15 7.2 L 95.25 2.29 L 92.39 -5.49 L 86.18 -7.62 L 83.16 -14.3 L 63.22 -24.54 L 54.19 -33.44 L 57.51 -48.99 L 72.43 -50.33 L 79.1 -44.29 L 89.02 -46.52 L 87.52 -54.52 L 92.33 -55.09 L 89.82 -68.85 L 83.01 -76.44 L 76.15 -79.6 L 74.66 -87.53 L 57.43 -106.16 L 54.37 -114.79 L 74.47 -106.27 L 92.36 -105.67 L 97.34 -112.47 L 104.64 -115.16 L 105.05 -120.47 L 100.37 -123.87 L 98.65 -120.15 L 89.53 -126.85 L 101.6 -134.27 L 105.71 -131.93 L 106.45 -138.11 L 109.11 -138.53 L 109.11 -138.53 L 123.4 -131.07 L 127.27 -124.25 L 132.6 -126.18 L 127.27 -133.85 L 133.33 -131.72 L 139.4 -135.76 L 143.26 -134.91 L 149.31 -128.3 L 156.82 -130.87 Z " fill="#0d1111" fill-opacity="1" stroke="#505050" stroke-opacity="1" stroke-width="1.3888506202638435" class="amcharts-map-area amcharts-map-area-RS-16" role="menuitem" aria-label="Zlatiborski okrug  " cursor="pointer"></path>
                    <path cs="100,100" d=" M 279.21 -74.51 L 278.51 -75.07 L 278.51 -75.07 L 271.01 -58.68 L 277.81 -54.27 L 277.08 -51.44 L 273.15 -51.44 L 277.08 -38.19 L 273.15 -35.97 L 266.01 -38.81 L 260.29 -37.25 L 256.36 -38.81 L 254.57 -36.3 L 259.21 -32.81 L 256.73 -19.24 L 262.44 -18.61 L 266.72 -14.82 L 266.01 -9.13 L 260.65 -4.72 L 263.51 -2.5 L 260.84 2.4 L 260.84 2.4 L 260.64 2.4 L 260.64 2.4 L 234.95 13.34 L 241.1 20.77 L 240.84 27.22 L 244.18 27.89 L 246.3 41.04 L 238.3 43.23 L 238.35 45.31 L 234.61 43.65 L 229.6 45.25 L 219.83 51.33 L 218.58 55.91 L 223.48 63.5 L 223.48 63.5 L 222.75 65 L 222.75 65 L 219.14 68.33 L 200.14 70.99 L 200.14 70.99 L 202.29 68.46 L 201.26 58.38 L 194.75 53.38 L 175.83 46.24 L 171.51 47.63 L 163.78 42.28 L 163.78 42.28 L 169.54 30.96 L 172.04 27.8 L 177.05 27.47 L 178.83 21.78 L 193.83 18.62 L 192.77 14.5 L 184.55 8.82 L 190.62 5.65 L 188.84 0.91 L 190.62 -2.88 L 190.62 -2.88 L 194.2 -2.88 L 194.2 -2.88 L 201.7 1.24 L 206.7 -7.62 L 211.34 -9.19 L 211.7 -17.41 L 208.83 -19.63 L 211.7 -29.1 L 205.27 -36.04 L 199.91 -36.98 L 196.7 -40.46 L 203.84 -46.13 L 206.7 -52.76 L 203.13 -55.91 L 204.56 -59.06 L 207.77 -60.64 L 212.06 -59.06 L 214.56 -61.27 L 210.27 -72.31 L 215.99 -72.62 L 221.35 -78.6 L 228.14 -81.44 L 227.78 -86.79 L 237.07 -92.15 L 237.07 -92.15 L 240.27 -90.88 L 240.27 -90.88 L 248.14 -80.18 L 258.15 -83 L 255.65 -84.58 L 256.36 -87.41 L 259.93 -88.67 L 273.15 -87.11 L 273.15 -87.11 L 274.23 -81.44 L 274.23 -81.44 Z " fill="#0d1111" fill-opacity="1" stroke="#505050" stroke-opacity="1" stroke-width="1.3888506202638435" class="amcharts-map-area amcharts-map-area-RS-18" role="menuitem" aria-label="Raški okrug  " cursor="pointer"></path>
                    <path cs="100,100" d=" M 347.12 -16.03 L 346.75 -16.72 L 346.75 -16.72 L 338.53 -19.24 L 334.95 -17.67 L 331.03 -20.51 L 327.1 -18.29 L 327.1 -18.29 L 313.52 -15.76 L 313.52 -15.76 L 312.1 -8.5 L 306.38 -5.66 L 303.52 3.5 L 298.52 6.35 L 292.09 1.93 L 287.44 4.14 L 284.94 1.61 L 282.8 2.87 L 277 25.82 L 277 25.82 L 276.8 25.74 L 276.8 25.74 L 266.6 20.32 L 267.05 15.57 L 273.87 16.73 L 274.15 14.81 L 267.27 4.39 L 261.29 2.4 L 261.29 2.4 L 260.84 2.4 L 260.84 2.4 L 263.51 -2.5 L 260.65 -4.72 L 266.01 -9.13 L 266.72 -14.82 L 262.44 -18.61 L 256.73 -19.24 L 259.21 -32.81 L 254.57 -36.3 L 256.36 -38.81 L 260.29 -37.25 L 266.01 -38.81 L 273.15 -35.97 L 277.08 -38.19 L 273.15 -51.44 L 277.08 -51.44 L 277.81 -54.27 L 271.01 -58.68 L 278.51 -75.07 L 278.51 -75.07 L 282.8 -71.61 L 282.8 -71.61 L 285.66 -73.19 L 301.03 -69.4 L 304.95 -70.67 L 303.52 -76.33 L 309.95 -75.4 L 316.38 -79.48 L 317.1 -88.61 L 320.3 -91.13 L 319.95 -79.17 L 331.75 -81.69 L 335.32 -78.54 L 331.03 -76.66 L 336.76 -72.56 L 342.82 -73.82 L 347.12 -77.91 L 347.12 -77.91 L 348.54 -74.44 L 348.54 -74.44 L 351.41 -69.72 L 345.33 -61.21 L 349.25 -54.59 L 353.18 -53.33 L 354.61 -43.55 L 358.17 -41.66 L 354.61 -32.81 L 358.9 -25.24 Z " fill="#0d1111" fill-opacity="1" stroke="#505050" stroke-opacity="1" stroke-width="1.3888506202638435" class="amcharts-map-area amcharts-map-area-RS-19" role="menuitem" aria-label="Rasinski okrug  " cursor="pointer"></path>
                    <path cs="100,100" d=" M 336.06 66.99 L 335.75 66.61 L 335.75 66.61 L 331.83 67.47 L 326.15 60.48 L 314.21 59.61 L 316.53 50.7 L 312.85 44.52 L 306.82 49.29 L 305.01 29.63 L 300.75 31.59 L 295.8 23.91 L 289.2 26.57 L 282.49 25.95 L 282.49 25.95 L 281.73 26.18 L 281.73 26.18 L 277.62 26.06 L 277.62 26.06 L 277 25.82 L 277 25.82 L 282.8 2.87 L 284.94 1.61 L 287.44 4.14 L 292.09 1.93 L 298.52 6.35 L 303.52 3.5 L 306.38 -5.66 L 312.1 -8.5 L 313.52 -15.76 L 313.52 -15.76 L 327.1 -18.29 L 327.1 -18.29 L 331.03 -20.51 L 334.95 -17.67 L 338.53 -19.24 L 346.75 -16.72 L 346.75 -16.72 L 348.54 -13.25 L 348.54 -13.25 L 361.77 -13.88 L 358.54 -7.56 L 362.83 -2.5 L 367.12 -1.87 L 365.33 2.87 L 367.12 5.71 L 374.26 9.19 L 376.05 2.55 L 384.62 5.08 L 388.55 19 L 388.55 19 L 389.63 21.53 L 389.63 21.53 L 385.33 26.59 L 357.11 39.88 L 351.04 39.88 L 342.11 46.54 L 344.61 50.65 L 343.89 60.47 Z " fill="#0d1111" fill-opacity="1" stroke="#505050" stroke-opacity="1" stroke-width="1.3888506202638435" class="amcharts-map-area amcharts-map-area-RS-21" role="menuitem" aria-label="Toplički okrug  " cursor="pointer"></path>
                    <path cs="100,100" d=" M 480.35 64.69 L 478.73 68.3 L 471.02 72.2 L 471.02 72.2 L 462.82 74.01 L 458.08 79.37 L 447.14 83.5 L 441.89 82.03 L 441.89 76.89 L 439.41 78.1 L 436.64 74.18 L 429.19 77.37 L 428.36 71.73 L 422.56 71.24 L 418.71 73.95 L 412.9 71.49 L 410.41 76.38 L 391.91 76.89 L 386.39 90.6 L 382.7 93.21 L 382.7 93.21 L 382.59 93.15 L 382.59 93.15 L 372.36 99.38 L 359.96 86.74 L 348.42 85.78 L 348.42 85.78 L 348.29 85.73 L 348.29 85.73 L 333.18 82.46 L 336.7 67.8 L 336.7 67.8 L 336.06 66.99 L 336.06 66.99 L 343.89 60.47 L 344.61 50.65 L 342.11 46.54 L 351.04 39.88 L 357.11 39.88 L 385.33 26.59 L 389.63 21.53 L 389.63 21.53 L 389.07 20.22 L 389.07 20.22 L 400.19 17.4 L 402.68 22.53 L 410.14 18.14 L 414.54 18.37 L 431.13 28.89 L 431.4 32.33 L 439.68 33.55 L 443.55 29.15 L 443.55 29.15 L 443.55 31.34 L 443.55 31.34 L 447.97 33.78 L 439.68 38.92 L 441.61 41.62 L 465.37 51.66 L 462.05 55.08 L 469.5 62.67 Z " fill="#0d1111" fill-opacity="1" stroke="#505050" stroke-opacity="1" stroke-width="1.3888506202638435" class="amcharts-map-area amcharts-map-area-RS-23" role="menuitem" aria-label="Jablanički okrug  "></path>
                    <path cs="100,100" d=" M 253.52 106.18 L 255.29 97.74 L 261.35 95.83 L 262.08 92.35 L 267.08 90.76 L 269.94 93.62 L 276.37 89.17 L 279.95 94.24 L 291.73 88.54 L 294.6 82.51 L 292.81 78.39 L 300.31 74.59 L 298.87 70.15 L 293.88 67.93 L 294.6 45.42 L 287.8 40.05 L 282.18 26.04 L 282.18 26.04 L 282.49 25.95 L 282.49 25.95 L 289.2 26.57 L 295.8 23.91 L 300.75 31.59 L 305.01 29.63 L 306.82 49.29 L 312.85 44.52 L 316.53 50.7 L 314.21 59.61 L 326.15 60.48 L 331.83 67.47 L 335.75 66.61 L 335.75 66.61 L 336.7 67.8 L 336.7 67.8 L 333.18 82.46 L 348.29 85.73 L 348.29 85.73 L 348.39 85.76 L 348.39 85.76 L 345.68 92.02 L 336.76 91.38 L 343.17 96.79 L 343.54 102.19 L 332.82 103.78 L 328.89 110.44 L 319.95 117.43 L 325.31 121.56 L 320.67 126.33 L 320.3 130.77 L 324.6 136.17 L 322.11 137.45 L 323.9 143.49 L 316.74 147.3 L 319.6 147.94 L 318.17 155.25 L 322.46 160.67 L 333.67 163.88 L 333.67 163.88 L 328.29 168.47 L 319.88 184.41 L 311.89 184.16 L 302.15 168.59 L 298.1 168.35 L 282.63 178.88 L 282.63 178.88 L 281.73 174.03 L 267.78 169.26 L 268.15 166.71 L 282.08 156.53 L 279.95 143.8 L 275.3 141.9 L 280.3 135.22 L 273.87 129.82 L 272.8 125.69 L 262.08 120.59 L 262.08 120.59 L 258.86 120.59 L 258.86 120.59 L 258.86 108.54 L 255.65 106.94 L 255.65 106.94 Z " fill="#0d1111" fill-opacity="1" stroke="#505050" stroke-opacity="1" stroke-width="1.3888506202638435" class="amcharts-map-area amcharts-map-area-RS-25" role="menuitem" aria-label="Kosovski okrug  "></path>
                    <path cs="100,100" d=" M 258.86 120.59 L 256.73 120.59 L 256.73 120.59 L 247.79 122.82 L 241.71 116.47 L 237.43 119.64 L 227.78 119.02 L 221.35 124.1 L 222.06 143.49 L 233.86 149.84 L 221 158.44 L 218.6 165.05 L 218.6 165.05 L 213.13 158.58 L 197.46 149.84 L 193.47 151.75 L 185.34 150.31 L 185.41 143.38 L 180.68 138.51 L 182.11 133.15 L 175.17 121.96 L 163.21 114.38 L 164.52 104.29 L 171.77 97.21 L 161.75 89.34 L 159.76 84.46 L 162.21 79.67 L 185.98 83.81 L 191.79 78.04 L 191.51 73.92 L 200.14 70.99 L 200.14 70.99 L 219.14 68.33 L 222.75 65 L 222.75 65 L 223.25 63.97 L 223.25 63.97 L 229.21 61.58 L 234.57 63.49 L 239.57 71.41 L 239.21 78.39 L 236.35 80.6 L 238.5 87.59 L 235.28 88.21 L 236 91.07 L 239.21 96.47 L 245.64 94.88 L 248.14 102.5 L 252.07 105.67 L 252.07 105.67 L 255.65 106.94 L 255.65 106.94 L 258.86 108.54 Z " fill="#0d1111" fill-opacity="1" stroke="#505050" stroke-opacity="1" stroke-width="1.3888506202638435" class="amcharts-map-area amcharts-map-area-RS-26" role="menuitem" aria-label="Pećki okrug  "></path>
                    <path cs="100,100" d=" M 333.67 163.88 L 322.46 160.67 L 318.17 155.25 L 319.6 147.94 L 316.74 147.3 L 323.9 143.49 L 322.11 137.45 L 324.6 136.17 L 320.3 130.77 L 320.67 126.33 L 325.31 121.56 L 319.95 117.43 L 328.89 110.44 L 332.82 103.78 L 343.54 102.19 L 343.17 96.79 L 336.76 91.38 L 345.68 92.02 L 348.39 85.76 L 348.39 85.76 L 348.42 85.78 L 348.42 85.78 L 359.96 86.74 L 372.36 99.38 L 382.59 93.15 L 382.59 93.15 L 383.58 93.68 L 383.58 93.68 L 388.89 103.93 L 380.33 111.81 L 377.74 122.04 L 364.84 130.73 L 363.57 141.15 L 357.68 146.98 L 361.38 153.71 L 361.23 160.53 L 361.23 160.53 L 348.9 161.88 L 341.09 159.78 L 338.4 163.57 Z " fill="#0d1111" fill-opacity="1" stroke="#505050" stroke-opacity="1" stroke-width="1.3888506202638435" class="amcharts-map-area amcharts-map-area-RS-29" role="menuitem" aria-label="Kosovsko-Pomoravski okrug  "></path>
                    <path cs="100,100" d=" M 443.55 29.41 L 449.63 27.59 L 449.35 20.51 L 442.17 19.77 L 428.36 10.23 L 430.85 4.38 L 435.53 1.69 L 432.23 -3.7 L 431.96 -11.27 L 447.41 -6.87 L 454.86 -8.57 L 456.52 -12.71 L 456.52 -12.71 L 456.52 -16.14 L 456.52 -16.14 L 470.62 -11.02 L 478.62 -14.91 L 481.93 -8.82 L 487.73 -8.08 L 500.01 -17.96 L 500.01 -17.96 L 512.5 -14.3 L 520.27 -6.9 L 522.38 0.47 L 529.35 9.41 L 543.46 14.87 L 540.85 18.84 L 541.99 23.63 L 540.12 27.86 L 532.16 32.41 L 529.26 39.43 L 514.67 47.71 L 514.06 55.72 L 509.61 62.67 L 503.39 63.05 L 501.08 65.67 L 493.17 61.19 L 488.71 61.8 L 487.44 66.11 L 482.58 63.53 L 480.35 64.69 L 480.35 64.69 L 469.5 62.67 L 462.05 55.08 L 465.37 51.66 L 441.61 41.62 L 439.68 38.92 L 447.97 33.78 L 443.55 31.34 L 443.55 31.34 Z " fill="#0d1111" fill-opacity="1" stroke="#505050" stroke-opacity="1" stroke-width="1.3888506202638435" class="amcharts-map-area amcharts-map-area-RS-22" role="menuitem" aria-label="Pirotski okrug  " cursor="pointer"></path>
                    <path cs="100,100" d=" M 471.02 72.2 L 470.47 75.32 L 477.97 85.45 L 472.64 93.6 L 474.83 95.79 L 469.77 112.48 L 480.55 118.78 L 485.36 125.25 L 480.34 138.72 L 475.01 139.5 L 471.71 148.86 L 457.88 152.75 L 447.44 145.19 L 439.45 149.59 L 440.5 154.69 L 433.52 152.06 L 428.01 154.99 L 416.71 153.4 L 404.73 147.5 L 402.6 153.29 L 389.33 152.86 L 381.58 160.03 L 368.95 162.61 L 361.23 160.53 L 361.23 160.53 L 361.38 153.71 L 357.68 146.98 L 363.57 141.15 L 364.84 130.73 L 377.74 122.04 L 380.33 111.81 L 388.89 103.93 L 383.58 93.68 L 383.58 93.68 L 382.7 93.21 L 382.7 93.21 L 386.39 90.6 L 391.91 76.89 L 410.41 76.38 L 412.9 71.49 L 418.71 73.95 L 422.56 71.24 L 428.36 71.73 L 429.19 77.37 L 436.64 74.18 L 439.41 78.1 L 441.89 76.89 L 441.89 82.03 L 447.14 83.5 L 458.08 79.37 L 462.82 74.01 Z " fill="#0d1111" fill-opacity="1" stroke="#505050" stroke-opacity="1" stroke-width="1.3888506202638435" class="amcharts-map-area amcharts-map-area-RS-24" role="menuitem" aria-label="Pčinjski okrug  "></path>
                    <path cs="100,100" d=" M 257.54 -216.9 L 248.58 -220.22 L 236.4 -232.06 L 234.76 -237.21 L 237.51 -244.15 L 233.4 -258.44 L 224.73 -259.19 L 221.62 -267.54 L 215.04 -270.16 L 207.28 -279.63 L 206.99 -285.49 L 206.99 -285.49 L 207.77 -285.53 L 207.77 -285.53 L 211.41 -289.97 L 210.92 -296.74 L 216.25 -303.51 L 224.73 -303.71 L 228.36 -309 L 238.54 -306.03 L 247.97 -297.58 L 253.54 -304.77 L 263.47 -309.2 L 264.44 -311.09 L 259.11 -314.07 L 285.16 -324 L 285.16 -324 L 291.3 -324.53 L 295.68 -318.86 L 305.71 -323.36 L 311.29 -311.45 L 318.61 -308.1 L 320.8 -310.12 L 334.03 -306.23 L 335.71 -307.86 L 349.95 -298.26 L 351.21 -293.38 L 344.89 -290.71 L 341.92 -277.73 L 329.54 -274.69 L 339.65 -265.13 L 353.56 -260.45 L 355.49 -253.71 L 343.39 -250.32 L 330.81 -250.57 L 329.41 -243.44 L 329.41 -243.44 L 311.5 -236.81 L 302.75 -229.8 L 288.57 -226.52 L 288.57 -226.52 L 286.56 -226.78 L 286.56 -226.78 L 282.34 -226.25 L 273.2 -219.07 L 259.45 -216.82 L 259.45 -216.82 Z " fill="#0d1111" fill-opacity="1" stroke="#505050" stroke-opacity="1" stroke-width="1.3888506202638435" class="amcharts-map-area amcharts-map-area-RS-04" role="menuitem" aria-label="Južnobanatski okrug  " cursor="pointer"></path>
                </g>
                <g>
                    <g role="menuitem" aria-label=" " transform="translate(175.0040984753823,-197.52533831489916) scale(1.2058071673178026)">
                        <path cs="100,100" d="M3.5,13.277C3.5,6.22,9.22,0.5,16.276,0.5C23.333,0.5,29.053,6.22,29.053,13.277C29.053,14.54,28.867,15.759,28.526,16.914C26.707,24.271,16.219,32.5,16.219,32.5C16.219,32.5,4.37,23.209,3.673,15.542C3.673,15.542,3.704,15.536,3.704,15.536C3.572,14.804,3.5,14.049,3.5,13.277C3.5,13.277,3.5,13.277,3.5,13.277M16.102,16.123C18.989,16.123,21.329,13.782,21.329,10.895C21.329,8.008,18.989,5.668,16.102,5.668C13.216,5.668,10.876,8.008,10.876,10.895C10.876,13.782,13.216,16.123,16.102,16.123C16.102,16.123,16.102,16.123,16.102,16.123" transform="translate(-16.27649974822998,-16.5) scale(1)" stroke-opacity="0" fill-opacity="0.8" fill="#4bd8b5" class="amcharts-map-image"></path>
                    </g>
                </g>
            </g>
        </g>
        <g transform="translate(20,20)">
            <path class="app-brand-logo-white" fill="#FFFFFF" d="M5.033,31.105h0.941l3.383,8.306H8.514l-0.819-2.016H3.176l-0.868,2.016H1.465L5.033,31.105zM3.408,36.749h4.055l-1.967-4.801L3.408,36.749z"></path>
            <path class="app-brand-logo-white" fill="#FFFFFF" d="M19.117,32.436l-3.493,4.226h-0.196l-3.493-4.226v6.975h-0.83v-8.306h0.757l3.665,4.434l3.651-4.434h0.77v8.306h-0.831V32.436z"></path>
            <path class="app-brand-logo-white" fill="#FFFFFF" d="M26.997,37.64c1.026,0,1.747-0.403,2.284-0.819l0.941,1.478c-0.855,0.77-1.955,1.234-3.286,1.234c-2.504,0-4.385-1.845-4.385-4.276c0-2.43,1.881-4.275,4.385-4.275c1.331,0,2.431,0.464,3.286,1.234l-0.941,1.478c-0.537-0.415-1.258-0.818-2.284-0.818c-1.404,0-2.332,1.063-2.332,2.382C24.664,36.578,25.593,37.64,26.997,37.64z"></path>
            <path class="app-brand-logo-white" fill="#FFFFFF" d="M38.382,36.101h-3.92v3.31h-2.053v-8.306h2.053v3.212h3.92v-3.212h2.052v8.306h-2.052V36.101z"></path>
            <path class="app-brand-logo-white" fill="#FFFFFF" d="M45.455,31.105h2.418l3.139,8.306h-2.076l-0.562-1.527h-3.481l-0.574,1.527h-2.077L45.455,31.105zM45.406,36.382h2.468l-1.209-3.249L45.406,36.382z"></path>
            <path class="app-brand-logo-white" fill="#FFFFFF" d="M52.858,31.105h3.945c1.93,0,3.2,0.88,3.2,2.748c0,1.234-0.818,2.162-1.966,2.492l2.418,2.675v0.391h-2.187l-2.528-2.944h-0.83v2.944h-2.052V31.105z M54.91,32.888v2.052h1.857c0.672,0,1.111-0.415,1.111-1.026c0-0.635-0.44-1.026-1.111-1.026H54.91z"></path>
            <path class="app-brand-logo-white" fill="#FFFFFF" d="M66.295,32.901v6.511h-2.052v-6.511H61.69v-1.795h7.084v1.795H66.295z"></path>
            <path class="app-brand-logo-white" fill="#FFFFFF" d="M70.889,36.944c0.635,0.416,1.588,0.831,2.626,0.831c0.818,0,1.331-0.269,1.331-0.795c0-0.366-0.269-0.586-0.94-0.757l-1.355-0.367c-1.43-0.378-2.114-1.136-2.114-2.308c0-1.418,1.087-2.553,3.322-2.553c1.185,0,2.345,0.33,2.993,0.659l-0.574,1.772c-0.647-0.367-1.649-0.672-2.504-0.672c-0.806,0-1.149,0.257-1.149,0.66c0,0.366,0.245,0.513,0.757,0.659l1.478,0.428c1.526,0.439,2.186,1.184,2.186,2.333c0,1.6-1.405,2.699-3.482,2.699c-1.221,0-2.504-0.416-3.053-0.721L70.889,36.944z"></path>
            <path class="app-brand-logo-white" fill="#FFFFFF" d="M68.607,20.635c-11.025-0.002-20.827-0.004-20.827-0.004l0,0h-0.001c-6.516,0-9.003-4.935-11.637-10.16C33.664,5.553,31.101,0.466,24.983,0.466c-6.116,0-8.68,5.086-11.159,10.005c-2.633,5.225-5.121,10.16-11.637,10.16l-0.1,0.021c-0.858,0.001-1.554,0.699-1.553,1.558c0.001,0.858,0.697,1.553,1.556,1.553h0.001c0.096,0,0.082-0.02,0.096-0.02c8.433,0,11.75-6.583,14.416-11.871c2.243-4.45,4.181-8.295,8.38-8.295c4.2,0,6.138,3.843,8.381,8.295c2.665,5.288,5.982,11.869,14.414,11.871l0,0c0,0,15.624,0.005,29.88,0.005v-0.005C74.371,23.744,71.319,22.668,68.607,20.635z"></path>
            <path fill="none" stroke="#5DC7CE" stroke-width="4" stroke-linejoin="round" stroke-miterlimit="10" d="M-3.898,22.214"></path>
            <path fill="#1FA3DD" d="M78,20.632h-0.34c-7.295,0-11.593-6.37-13.915-11.714c-0.634-1.459-2.431-4.912-5.418-5.437c-1.08-0.189-2.724-0.046-4.403,1.725c-0.66,0.697-1.174,1.559-1.67,2.392c-1.073,1.801-1.695,2.642-2.672,2.578c-1.162-0.075-1.823-1.083-2.803-2.72c-0.579-0.966-1.177-1.965-2.022-2.743c-0.868-0.798-2.114-1.199-3.416-1.09c-1.345,0.109-2.55,0.722-3.305,1.685c-0.927,1.181-1.485,2.496-2.025,3.77c-0.089,0.21-0.177,0.409-0.265,0.612c0.134,0.261,0.266,0.523,0.397,0.785c0.451,0.894,0.898,1.778,1.361,2.632c0.114-0.201,0.24-0.398,0.349-0.6c0.393-0.731,0.713-1.484,1.022-2.212c0.482-1.136,0.937-2.209,1.609-3.065c0.211-0.269,0.646-0.466,1.108-0.504c0.425-0.037,0.833,0.071,1.058,0.278c0.514,0.473,0.973,1.24,1.459,2.052c1.079,1.801,2.421,4.042,5.271,4.227c3.01,0.187,4.469-2.281,5.547-4.09c0.428-0.719,0.833-1.397,1.256-1.844c0.88-0.928,1.427-0.833,1.605-0.801c0.979,0.172,2.255,1.658,3.104,3.612c3.805,8.761,9.761,13.586,16.769,13.586H78c0.859,0,1.556-0.697,1.556-1.556C79.555,21.328,78.859,20.632,78,20.632z M30.888,16.92c-2.452,2.683-5.12,3.728-9.512,3.728H10.661c-2.101,1.846-4.801,3.095-8.474,3.095H2.023c0.055,0.006,0.108,0.017,0.122,0.02h19.187c5.283-0.003,8.814-1.421,11.852-4.743c0.879-0.962,1.684-1.957,2.426-2.974c-0.612-1.01-1.162-2.044-1.679-3.054C33.05,14.343,32.039,15.661,30.888,16.92z"></path>
        </g>
    </svg>