<?xml version="1.0" encoding="utf-8"?>
<!-- Generator: Adobe Illustrator 16.0.0, SVG Export Plug-In . SVG Version: 6.00 Build 0)  -->
<!DOCTYPE svg PUBLIC "-//W3C//DTD SVG 1.1//EN" "http://www.w3.org/Graphics/SVG/1.1/DTD/svg11.dtd">
<svg version="1.1" id="Layer_1" xmlns="http://www.w3.org/2000/svg" xmlns:xlink="http://www.w3.org/1999/xlink" x="0px" y="0px"
	 width="60px" height="63.229px" viewBox="0 0 60 63.229" enable-background="new 0 0 60 63.229" xml:space="preserve">
<g>
	<path fill-rule="evenodd" clip-rule="evenodd" fill="#64A39B" d="M32.818,0c1.145,0.165,2.297,0.298,3.432,0.503
		c4.209,0.762,8.064,2.384,11.525,4.908c5.563,4.051,9.313,9.378,11.121,16.036c0.986,3.64,1.197,7.339,0.732,11.081
		c-0.547,4.418-2.068,8.477-4.488,12.206c-0.895,1.38-2.279,1.738-3.551,0.909c-0.842-0.545-1.299-1.775-0.875-2.68
		c0.465-0.994,1.094-1.906,1.578-2.887c4.117-8.373,3.863-16.634-1.26-24.427C46.363,8.543,39.529,4.864,30.99,4.843
		c-7.961-0.016-14.452,3.291-19.242,9.648c-4.904,6.518-5.978,13.79-3.756,21.588c0.037,0.134,0.104,0.256,0.187,0.453
		c0.415-0.527,0.784-1.006,1.164-1.479c0.662-0.824,1.51-1.116,2.366-0.818c0.82,0.284,1.299,1.021,1.299,2.068
		c0.003,3.322,0.003,6.645-0.016,9.967c-0.008,1.629-1.448,2.533-2.926,1.857c-0.075-0.033-0.149-0.071-0.216-0.113
		c-2.927-1.888-5.858-3.764-8.776-5.668c-0.771-0.499-1.098-1.43-0.867-2.24c0.229-0.8,1-1.355,2.002-1.438
		c0.483-0.043,0.967-0.069,1.467-0.106c-0.335-1.308-0.718-2.544-0.962-3.807c-1.584-8.21-0.085-15.799,4.784-22.625
		c4.027-5.643,9.426-9.394,16.143-11.153c1.605-0.42,3.279-0.576,4.922-0.855C28.76,0.091,28.953,0.04,29.15,0
		C30.373,0,31.596,0,32.818,0z"/>
	<g>
		<ellipse fill-rule="evenodd" clip-rule="evenodd" fill="#64A39B" cx="31.359" cy="29.546" rx="11.993" ry="13.014"/>
		<path fill-rule="evenodd" clip-rule="evenodd" fill="#64A39B" d="M31.359,39.668c-11.908,0-16.161,10.55-16.161,23.561H47.52
			C47.52,50.218,43.096,39.668,31.359,39.668z"/>
	</g>
</g>
</svg>
